<?xml version="1.0" encoding="UTF-8" standalone="no"?><svg xmlns="http://www.w3.org/2000/svg" xmlns:xlink="http://www.w3.org/1999/xlink" contentScriptType="application/ecmascript" contentStyleType="text/css" height="551px" preserveAspectRatio="none" style="width:1132px;height:551px;" version="1.1" viewBox="0 0 1132 551" width="1132px" zoomAndPan="magnify"><defs><filter height="300%" id="fniqt7pu9ngot" width="300%" x="-1" y="-1"><feGaussianBlur result="blurOut" stdDeviation="2.0"/><feColorMatrix in="blurOut" result="blurOut2" type="matrix" values="0 0 0 0 0 0 0 0 0 0 0 0 0 0 0 0 0 0 .4 0"/><feOffset dx="4.0" dy="4.0" in="blurOut2" result="blurOut3"/><feBlend in="SourceGraphic" in2="blurOut3" mode="normal"/></filter></defs><g><!--entity domain-model-plugin--><rect fill="#FEFECE" filter="url(#fniqt7pu9ngot)" height="52.9766" style="stroke: #A80036; stroke-width: 1.5;" width="175" x="6" y="328"/><rect fill="#FEFECE" height="5" style="stroke: #A80036; stroke-width: 1.5;" width="10" x="1" y="333"/><rect fill="#FEFECE" height="5" style="stroke: #A80036; stroke-width: 1.5;" width="10" x="1" y="370.9766"/><text fill="#000000" font-family="sans-serif" font-size="14" font-style="italic" lengthAdjust="spacingAndGlyphs" textLength="95" x="46" y="351.5352">«project type»</text><text fill="#000000" font-family="sans-serif" font-size="14" lengthAdjust="spacingAndGlyphs" textLength="155" x="16" y="368.0234">domain-model-plugin</text><!--entity domain-model--><rect fill="#FEFECE" filter="url(#fniqt7pu9ngot)" height="52.9766" style="stroke: #A80036; stroke-width: 1.5;" width="123" x="32" y="181"/><rect fill="#FEFECE" height="5" style="stroke: #A80036; stroke-width: 1.5;" width="10" x="27" y="186"/><rect fill="#FEFECE" height="5" style="stroke: #A80036; stroke-width: 1.5;" width="10" x="27" y="223.9766"/><text fill="#000000" font-family="sans-serif" font-size="14" font-style="italic" lengthAdjust="spacingAndGlyphs" textLength="95" x="46" y="204.5352">«project type»</text><text fill="#000000" font-family="sans-serif" font-size="14" lengthAdjust="spacingAndGlyphs" textLength="103" x="42" y="221.0234">domain-model</text><!--entity generator--><rect fill="#FEFECE" filter="url(#fniqt7pu9ngot)" height="52.9766" style="stroke: #A80036; stroke-width: 1.5;" width="115" x="657.5" y="213"/><rect fill="#FEFECE" height="5" style="stroke: #A80036; stroke-width: 1.5;" width="10" x="652.5" y="218"/><rect fill="#FEFECE" height="5" style="stroke: #A80036; stroke-width: 1.5;" width="10" x="652.5" y="255.9766"/><text fill="#000000" font-family="sans-serif" font-size="14" font-style="italic" lengthAdjust="spacingAndGlyphs" textLength="95" x="667.5" y="236.5352">«project type»</text><text fill="#000000" font-family="sans-serif" font-size="14" lengthAdjust="spacingAndGlyphs" textLength="68" x="681" y="253.0234">generator</text><!--entity model--><rect fill="#FEFECE" filter="url(#fniqt7pu9ngot)" height="52.9766" style="stroke: #A80036; stroke-width: 1.5;" width="115" x="331" y="97"/><rect fill="#FEFECE" height="5" style="stroke: #A80036; stroke-width: 1.5;" width="10" x="326" y="102"/><rect fill="#FEFECE" height="5" style="stroke: #A80036; stroke-width: 1.5;" width="10" x="326" y="139.9766"/><text fill="#000000" font-family="sans-serif" font-size="14" font-style="italic" lengthAdjust="spacingAndGlyphs" textLength="95" x="341" y="120.5352">«project type»</text><text fill="#000000" font-family="sans-serif" font-size="14" lengthAdjust="spacingAndGlyphs" textLength="43" x="367" y="137.0234">model</text><!--entity plugin--><rect fill="#FEFECE" filter="url(#fniqt7pu9ngot)" height="52.9766" style="stroke: #A80036; stroke-width: 1.5;" width="115" x="331" y="328"/><rect fill="#FEFECE" height="5" style="stroke: #A80036; stroke-width: 1.5;" width="10" x="326" y="333"/><rect fill="#FEFECE" height="5" style="stroke: #A80036; stroke-width: 1.5;" width="10" x="326" y="370.9766"/><text fill="#000000" font-family="sans-serif" font-size="14" font-style="italic" lengthAdjust="spacingAndGlyphs" textLength="95" x="341" y="351.5352">«project type»</text><text fill="#000000" font-family="sans-serif" font-size="14" lengthAdjust="spacingAndGlyphs" textLength="44" x="366.5" y="368.0234">plugin</text><!--entity project-group--><rect fill="#FEFECE" filter="url(#fniqt7pu9ngot)" height="52.9766" style="stroke: #A80036; stroke-width: 1.5;" width="118" x="329.5" y="9"/><rect fill="#FEFECE" height="5" style="stroke: #A80036; stroke-width: 1.5;" width="10" x="324.5" y="14"/><rect fill="#FEFECE" height="5" style="stroke: #A80036; stroke-width: 1.5;" width="10" x="324.5" y="51.9766"/><text fill="#000000" font-family="sans-serif" font-size="14" font-style="italic" lengthAdjust="spacingAndGlyphs" textLength="95" x="341" y="32.5352">«project type»</text><text fill="#000000" font-family="sans-serif" font-size="14" lengthAdjust="spacingAndGlyphs" textLength="98" x="339.5" y="49.0234">project-group</text><!--entity project-types--><rect fill="#FEFECE" filter="url(#fniqt7pu9ngot)" height="52.9766" style="stroke: #A80036; stroke-width: 1.5;" width="115" x="36" y="93"/><rect fill="#FEFECE" height="5" style="stroke: #A80036; stroke-width: 1.5;" width="10" x="31" y="98"/><rect fill="#FEFECE" height="5" style="stroke: #A80036; stroke-width: 1.5;" width="10" x="31" y="135.9766"/><text fill="#000000" font-family="sans-serif" font-size="14" font-style="italic" lengthAdjust="spacingAndGlyphs" textLength="95" x="46" y="116.5352">«project type»</text><text fill="#000000" font-family="sans-serif" font-size="14" lengthAdjust="spacingAndGlyphs" textLength="92" x="47.5" y="133.0234">project-types</text><!--entity template--><rect fill="#FEFECE" filter="url(#fniqt7pu9ngot)" height="52.9766" style="stroke: #A80036; stroke-width: 1.5;" width="115" x="331" y="488"/><rect fill="#FEFECE" height="5" style="stroke: #A80036; stroke-width: 1.5;" width="10" x="326" y="493"/><rect fill="#FEFECE" height="5" style="stroke: #A80036; stroke-width: 1.5;" width="10" x="326" y="530.9766"/><text fill="#000000" font-family="sans-serif" font-size="14" font-style="italic" lengthAdjust="spacingAndGlyphs" textLength="95" x="341" y="511.5352">«project type»</text><text fill="#000000" font-family="sans-serif" font-size="14" lengthAdjust="spacingAndGlyphs" textLength="60" x="358.5" y="528.0234">template</text><!--entity metamodel--><rect fill="#FEFECE" filter="url(#fniqt7pu9ngot)" height="36.4883" style="stroke: #A80036; stroke-width: 1.5;" width="97" x="340" y="256.5"/><rect fill="#FEFECE" height="5" style="stroke: #A80036; stroke-width: 1.5;" width="10" x="335" y="261.5"/><rect fill="#FEFECE" height="5" style="stroke: #A80036; stroke-width: 1.5;" width="10" x="335" y="282.9883"/><text fill="#000000" font-family="sans-serif" font-size="14" lengthAdjust="spacingAndGlyphs" textLength="77" x="350" y="280.0352">metamodel</text><!--entity domain-model-plugin.project-template--><rect fill="#FEFECE" filter="url(#fniqt7pu9ngot)" height="36.4883" style="stroke: #A80036; stroke-width: 1.5;" width="295" x="241" y="416.5"/><rect fill="#FEFECE" height="5" style="stroke: #A80036; stroke-width: 1.5;" width="10" x="236" y="421.5"/><rect fill="#FEFECE" height="5" style="stroke: #A80036; stroke-width: 1.5;" width="10" x="236" y="442.9883"/><text fill="#000000" font-family="sans-serif" font-size="14" lengthAdjust="spacingAndGlyphs" textLength="275" x="251" y="440.0352">domain-model-plugin.project-template</text><!--entity domain-model.project-template--><rect fill="#FEFECE" filter="url(#fniqt7pu9ngot)" height="36.4883" style="stroke: #A80036; stroke-width: 1.5;" width="243" x="267" y="185.5"/><rect fill="#FEFECE" height="5" style="stroke: #A80036; stroke-width: 1.5;" width="10" x="262" y="190.5"/><rect fill="#FEFECE" height="5" style="stroke: #A80036; stroke-width: 1.5;" width="10" x="262" y="211.9883"/><text fill="#000000" font-family="sans-serif" font-size="14" lengthAdjust="spacingAndGlyphs" textLength="223" x="277" y="209.0352">domain-model.project-template</text><!--entity project.project-types--><rect fill="#FEFECE" filter="url(#fniqt7pu9ngot)" height="36.4883" style="stroke: #A80036; stroke-width: 1.5;" width="164" x="925.5" y="8.5"/><rect fill="#FEFECE" height="5" style="stroke: #A80036; stroke-width: 1.5;" width="10" x="920.5" y="13.5"/><rect fill="#FEFECE" height="5" style="stroke: #A80036; stroke-width: 1.5;" width="10" x="920.5" y="34.9883"/><text fill="#000000" font-family="sans-serif" font-size="14" lengthAdjust="spacingAndGlyphs" textLength="144" x="935.5" y="32.0352">project.project-types</text><!--entity project.domain-model--><rect fill="#FEFECE" filter="url(#fniqt7pu9ngot)" height="36.4883" style="stroke: #A80036; stroke-width: 1.5;" width="175" x="920" y="79.5"/><rect fill="#FEFECE" height="5" style="stroke: #A80036; stroke-width: 1.5;" width="10" x="915" y="84.5"/><rect fill="#FEFECE" height="5" style="stroke: #A80036; stroke-width: 1.5;" width="10" x="915" y="105.9883"/><text fill="#000000" font-family="sans-serif" font-size="14" lengthAdjust="spacingAndGlyphs" textLength="155" x="930" y="103.0352">project.domain-model</text><!--entity common-model--><rect fill="#FEFECE" filter="url(#fniqt7pu9ngot)" height="36.4883" style="stroke: #A80036; stroke-width: 1.5;" width="131" x="942" y="150.5"/><rect fill="#FEFECE" height="5" style="stroke: #A80036; stroke-width: 1.5;" width="10" x="937" y="155.5"/><rect fill="#FEFECE" height="5" style="stroke: #A80036; stroke-width: 1.5;" width="10" x="937" y="176.9883"/><text fill="#000000" font-family="sans-serif" font-size="14" lengthAdjust="spacingAndGlyphs" textLength="111" x="952" y="174.0352">common-model</text><!--entity generator.project-template--><rect fill="#FEFECE" filter="url(#fniqt7pu9ngot)" height="36.4883" style="stroke: #A80036; stroke-width: 1.5;" width="208" x="903.5" y="221.5"/><rect fill="#FEFECE" height="5" style="stroke: #A80036; stroke-width: 1.5;" width="10" x="898.5" y="226.5"/><rect fill="#FEFECE" height="5" style="stroke: #A80036; stroke-width: 1.5;" width="10" x="898.5" y="247.9883"/><text fill="#000000" font-family="sans-serif" font-size="14" lengthAdjust="spacingAndGlyphs" textLength="188" x="913.5" y="245.0352">generator.project-template</text><!--entity metamodel-plugin--><rect fill="#FEFECE" filter="url(#fniqt7pu9ngot)" height="36.4883" style="stroke: #A80036; stroke-width: 1.5;" width="149" x="933" y="292.5"/><rect fill="#FEFECE" height="5" style="stroke: #A80036; stroke-width: 1.5;" width="10" x="928" y="297.5"/><rect fill="#FEFECE" height="5" style="stroke: #A80036; stroke-width: 1.5;" width="10" x="928" y="318.9883"/><text fill="#000000" font-family="sans-serif" font-size="14" lengthAdjust="spacingAndGlyphs" textLength="129" x="943" y="316.0352">metamodel-plugin</text><!--entity project.domain-model-plugin--><rect fill="#FEFECE" filter="url(#fniqt7pu9ngot)" height="36.4883" style="stroke: #A80036; stroke-width: 1.5;" width="227" x="894" y="363.5"/><rect fill="#FEFECE" height="5" style="stroke: #A80036; stroke-width: 1.5;" width="10" x="889" y="368.5"/><rect fill="#FEFECE" height="5" style="stroke: #A80036; stroke-width: 1.5;" width="10" x="889" y="389.9883"/><text fill="#000000" font-family="sans-serif" font-size="14" lengthAdjust="spacingAndGlyphs" textLength="207" x="904" y="387.0352">project.domain-model-plugin</text><!--entity common-model-plugin--><rect fill="#FEFECE" filter="url(#fniqt7pu9ngot)" height="36.4883" style="stroke: #A80036; stroke-width: 1.5;" width="183" x="916" y="434.5"/><rect fill="#FEFECE" height="5" style="stroke: #A80036; stroke-width: 1.5;" width="10" x="911" y="439.5"/><rect fill="#FEFECE" height="5" style="stroke: #A80036; stroke-width: 1.5;" width="10" x="911" y="460.9883"/><text fill="#000000" font-family="sans-serif" font-size="14" lengthAdjust="spacingAndGlyphs" textLength="163" x="926" y="458.0352">common-model-plugin</text><!--entity project-group.project-template--><rect fill="#FEFECE" filter="url(#fniqt7pu9ngot)" height="36.4883" style="stroke: #A80036; stroke-width: 1.5;" width="238" x="596" y="17.5"/><rect fill="#FEFECE" height="5" style="stroke: #A80036; stroke-width: 1.5;" width="10" x="591" y="22.5"/><rect fill="#FEFECE" height="5" style="stroke: #A80036; stroke-width: 1.5;" width="10" x="591" y="43.9883"/><text fill="#000000" font-family="sans-serif" font-size="14" lengthAdjust="spacingAndGlyphs" textLength="218" x="606" y="41.0352">project-group.project-template</text><!--entity template.project-template--><rect fill="#FEFECE" filter="url(#fniqt7pu9ngot)" height="36.4883" style="stroke: #A80036; stroke-width: 1.5;" width="200" x="615" y="496.5"/><rect fill="#FEFECE" height="5" style="stroke: #A80036; stroke-width: 1.5;" width="10" x="610" y="501.5"/><rect fill="#FEFECE" height="5" style="stroke: #A80036; stroke-width: 1.5;" width="10" x="610" y="522.9883"/><text fill="#000000" font-family="sans-serif" font-size="14" lengthAdjust="spacingAndGlyphs" textLength="180" x="625" y="520.0352">template.project-template</text><!--link domain-model-plugin to plugin--><path d="M181.22,354.5 C227.6,354.5 283.62,354.5 325.57,354.5 " fill="none" id="domain-model-plugin-plugin" style="stroke: #A80036; stroke-width: 1.0;"/><polygon fill="#A80036" points="330.62,354.5,321.62,350.5,325.62,354.5,321.62,358.5,330.62,354.5" style="stroke: #A80036; stroke-width: 1.0;"/><!--link domain-model to model--><path d="M155.21,190.1 C205.12,175.79 275.55,155.6 325.75,141.2 " fill="none" id="domain-model-model" style="stroke: #A80036; stroke-width: 1.0;"/><polygon fill="#A80036" points="330.84,139.74,321.0874,138.3664,326.0324,141.1136,323.2852,146.0586,330.84,139.74" style="stroke: #A80036; stroke-width: 1.0;"/><!--link model to generator--><path d="M446.24,139.21 C473.57,147.12 506.69,157.19 536,167.5 C575.12,181.25 618.24,198.64 652.25,212.88 " fill="none" id="model-generator" style="stroke: #A80036; stroke-width: 1.0;"/><polygon fill="#A80036" points="657.2,214.96,650.4386,207.7987,652.5867,213.0319,647.3536,215.18,657.2,214.96" style="stroke: #A80036; stroke-width: 1.0;"/><!--link plugin to generator--><path d="M446.18,338.19 C473.49,330.06 506.61,319.77 536,309.5 C575.14,295.82 618.44,278.83 652.54,265.02 " fill="none" id="plugin-generator" style="stroke: #A80036; stroke-width: 1.0;"/><polygon fill="#A80036" points="657.5,263,647.6568,262.6652,652.8646,264.8742,650.6556,270.0819,657.5,263" style="stroke: #A80036; stroke-width: 1.0;"/><!--link project-group to generator--><path d="M447.5,46.69 C475.42,53.6 508.68,64.15 536,79.5 C597.51,114.07 655.74,173.18 687.97,209.06 " fill="none" id="project-group-generator" style="stroke: #A80036; stroke-width: 1.0;"/><polygon fill="#A80036" points="691.39,212.89,688.3803,203.5123,688.0602,209.1601,682.4124,208.8399,691.39,212.89" style="stroke: #A80036; stroke-width: 1.0;"/><!--link project-types to model--><path d="M151.34,120.28 C201.38,120.96 274.09,121.95 325.59,122.65 " fill="none" id="project-types-model" style="stroke: #A80036; stroke-width: 1.0;"/><polygon fill="#A80036" points="330.82,122.73,321.8781,118.6018,325.8205,122.6586,321.7638,126.601,330.82,122.73" style="stroke: #A80036; stroke-width: 1.0;"/><!--link template to generator--><path d="M446.32,505.98 C475.08,499.64 509.42,488.8 536,470.5 C613.16,417.37 671.77,320.37 698.33,270.67 " fill="none" id="template-generator" style="stroke: #A80036; stroke-width: 1.0;"/><polygon fill="#A80036" points="700.81,266.01,693.0575,272.0845,698.466,270.4265,700.1239,275.8349,700.81,266.01" style="stroke: #A80036; stroke-width: 1.0;"/><!--link domain-model-plugin to metamodel--><path d="M180.28,327.94 C200.16,322.01 221.27,315.88 241,310.5 C271.92,302.06 306.76,293.47 334.7,286.79 " fill="none" id="domain-model-plugin-metamodel" style="stroke: #A80036; stroke-width: 1.0; stroke-dasharray: 7.0,7.0;"/><polygon fill="#A80036" points="339.84,285.56,330.1592,283.7482,334.9754,286.7155,332.0081,291.5317,339.84,285.56" style="stroke: #A80036; stroke-width: 1.0;"/><!--link domain-model-plugin to domain-model-plugin.project-template--><path d="M180.28,381.06 C200.16,386.99 221.27,393.12 241,398.5 C261.94,404.21 284.67,410 305.84,415.21 " fill="none" id="domain-model-plugin-domain-model-plugin.project-template" style="stroke: #A80036; stroke-width: 1.0; stroke-dasharray: 7.0,7.0;"/><polygon fill="#A80036" points="310.9,416.45,303.1221,410.4081,306.0459,415.2508,301.2033,418.1746,310.9,416.45" style="stroke: #A80036; stroke-width: 1.0;"/><!--link domain-model to metamodel--><path d="M155.21,221.38 C208.2,233.5 284.32,250.91 334.79,262.45 " fill="none" id="domain-model-metamodel" style="stroke: #A80036; stroke-width: 1.0; stroke-dasharray: 7.0,7.0;"/><polygon fill="#A80036" points="339.9,263.62,332.0185,257.7139,335.0259,262.5051,330.2347,265.5125,339.9,263.62" style="stroke: #A80036; stroke-width: 1.0;"/><!--link domain-model to domain-model.project-template--><path d="M155.21,206.67 C185.96,206.25 224.51,205.73 261.31,205.22 " fill="none" id="domain-model-domain-model.project-template" style="stroke: #A80036; stroke-width: 1.0; stroke-dasharray: 7.0,7.0;"/><polygon fill="#A80036" points="266.72,205.15,257.6638,201.279,261.7205,205.2214,257.7781,209.2782,266.72,205.15" style="stroke: #A80036; stroke-width: 1.0;"/><!--link generator to project.project-types--><path d="M735.7,212.83 C765.69,174.05 826.48,102.29 894,61.5 C903.88,55.53 914.87,50.49 926.01,46.26 " fill="none" id="generator-project.project-types" style="stroke: #A80036; stroke-width: 1.0; stroke-dasharray: 7.0,7.0;"/><polygon fill="#A80036" points="930.78,44.5,920.9518,43.8621,926.089,46.2305,923.7206,51.3677,930.78,44.5" style="stroke: #A80036; stroke-width: 1.0;"/><!--link generator to project.domain-model--><path d="M754.12,212.89 C789.21,189.32 843.33,155.21 894,132.5 C906.72,126.8 920.63,121.65 934.21,117.17 " fill="none" id="generator-project.domain-model" style="stroke: #A80036; stroke-width: 1.0; stroke-dasharray: 7.0,7.0;"/><polygon fill="#A80036" points="939.19,115.55,929.395,114.5217,934.4339,117.0925,931.863,122.1314,939.19,115.55" style="stroke: #A80036; stroke-width: 1.0;"/><!--link generator to common-model--><path d="M772.7,225.64 C819.63,214.17 886.51,197.83 936.73,185.55 " fill="none" id="generator-common-model" style="stroke: #A80036; stroke-width: 1.0; stroke-dasharray: 7.0,7.0;"/><polygon fill="#A80036" points="941.84,184.3,932.1481,182.5485,936.9826,185.4858,934.0454,190.3203,941.84,184.3" style="stroke: #A80036; stroke-width: 1.0;"/><!--link generator to generator.project-template--><path d="M772.7,239.5 C808.4,239.5 855.64,239.5 898.31,239.5 " fill="none" id="generator-generator.project-template" style="stroke: #A80036; stroke-width: 1.0; stroke-dasharray: 7.0,7.0;"/><polygon fill="#A80036" points="903.49,239.5,894.49,235.5,898.49,239.5,894.49,243.5,903.49,239.5" style="stroke: #A80036; stroke-width: 1.0;"/><!--link generator to metamodel-plugin--><path d="M772.7,253.36 C816.92,264.17 878.85,279.3 927.86,291.28 " fill="none" id="generator-metamodel-plugin" style="stroke: #A80036; stroke-width: 1.0; stroke-dasharray: 7.0,7.0;"/><polygon fill="#A80036" points="932.86,292.5,925.0654,286.4797,928.0026,291.3142,923.1681,294.2515,932.86,292.5" style="stroke: #A80036; stroke-width: 1.0;"/><!--link generator to project.domain-model-plugin--><path d="M754.89,266.19 C790.05,289.44 843.83,322.89 894,345.5 C907.44,351.56 922.2,357.05 936.48,361.82 " fill="none" id="generator-project.domain-model-plugin" style="stroke: #A80036; stroke-width: 1.0; stroke-dasharray: 7.0,7.0;"/><polygon fill="#A80036" points="941.3,363.41,934.0148,356.7824,936.5537,361.8374,931.4987,364.3764,941.3,363.41" style="stroke: #A80036; stroke-width: 1.0;"/><!--link generator to common-model-plugin--><path d="M735.7,266.17 C765.69,304.95 826.48,376.71 894,417.5 C903.88,423.47 914.87,428.51 926.01,432.74 " fill="none" id="generator-common-model-plugin" style="stroke: #A80036; stroke-width: 1.0; stroke-dasharray: 7.0,7.0;"/><polygon fill="#A80036" points="930.78,434.5,923.7206,427.6323,926.089,432.7695,920.9518,435.1379,930.78,434.5" style="stroke: #A80036; stroke-width: 1.0;"/><!--link project-group to project-group.project-template--><path d="M447.51,35.5 C487.26,35.5 541.47,35.5 590.63,35.5 " fill="none" id="project-group-project-group.project-template" style="stroke: #A80036; stroke-width: 1.0; stroke-dasharray: 7.0,7.0;"/><polygon fill="#A80036" points="595.67,35.5,586.67,31.5,590.67,35.5,586.67,39.5,595.67,35.5" style="stroke: #A80036; stroke-width: 1.0;"/><!--link template to template.project-template--><path d="M446.02,514.5 C491.06,514.5 555.34,514.5 609.65,514.5 " fill="none" id="template-template.project-template" style="stroke: #A80036; stroke-width: 1.0; stroke-dasharray: 7.0,7.0;"/><polygon fill="#A80036" points="614.88,514.5,605.88,510.5,609.88,514.5,605.88,518.5,614.88,514.5" style="stroke: #A80036; stroke-width: 1.0;"/><!--
@startuml
left to right direction

[domain-model-plugin] <<project type>>
[domain-model] <<project type>>
[generator] <<project type>>
[model] <<project type>>
[plugin] <<project type>>
[project-group] <<project type>>
[project-types] <<project type>>
[template] <<project type>>


[domain-model-plugin] - -> [plugin]
[domain-model] - -> [model]
[model] - -> [generator]
[plugin] - -> [generator]
[project-group] - -> [generator]
[project-types] - -> [model]
[template] - -> [generator]





  [domain-model-plugin] ..> [metamodel]
  [domain-model-plugin] ..> [domain-model-plugin.project-template]

  [domain-model] ..> [metamodel]
  [domain-model] ..> [domain-model.project-template]

  [generator] ..> [project.project-types]
  [generator] ..> [project.domain-model]
  [generator] ..> [common-model]
  [generator] ..> [generator.project-template]
  [generator] ..> [metamodel-plugin]
  [generator] ..> [project.domain-model-plugin]
  [generator] ..> [common-model-plugin]



  [project-group] ..> [project-group.project-template]


  [template] ..> [template.project-template]


@enduml

PlantUML version 1.2019.05(Sun Apr 21 01:45:36 JST 2019)
(GPL source distribution)
Java Runtime: OpenJDK Runtime Environment
JVM: OpenJDK 64-Bit Server VM
Java Version: 1.8.0_222-b10
Operating System: Mac OS X
OS Version: 10.15.5
Default Encoding: UTF-8
Language: en
Country: JP
--></g></svg>