<?xml version="1.0" encoding="UTF-8" standalone="no"?><svg xmlns="http://www.w3.org/2000/svg" xmlns:xlink="http://www.w3.org/1999/xlink" contentScriptType="application/ecmascript" contentStyleType="text/css" height="579px" preserveAspectRatio="none" style="width:1009px;height:579px;" version="1.1" viewBox="0 0 1009 579" width="1009px" zoomAndPan="magnify"><defs><filter height="300%" id="f18p9f7o8110ps" width="300%" x="-1" y="-1"><feGaussianBlur result="blurOut" stdDeviation="2.0"/><feColorMatrix in="blurOut" result="blurOut2" type="matrix" values="0 0 0 0 0 0 0 0 0 0 0 0 0 0 0 0 0 0 .4 0"/><feOffset dx="4.0" dy="4.0" in="blurOut2" result="blurOut3"/><feBlend in="SourceGraphic" in2="blurOut3" mode="normal"/></filter></defs><g><!--entity domain-model-plugin--><rect fill="#FEFECE" filter="url(#f18p9f7o8110ps)" height="52.9766" style="stroke: #A80036; stroke-width: 1.5;" width="175" x="6" y="88.5"/><rect fill="#FEFECE" height="5" style="stroke: #A80036; stroke-width: 1.5;" width="10" x="1" y="93.5"/><rect fill="#FEFECE" height="5" style="stroke: #A80036; stroke-width: 1.5;" width="10" x="1" y="131.4766"/><text fill="#000000" font-family="sans-serif" font-size="14" font-style="italic" lengthAdjust="spacingAndGlyphs" textLength="95" x="46" y="112.0352">«project type»</text><text fill="#000000" font-family="sans-serif" font-size="14" lengthAdjust="spacingAndGlyphs" textLength="155" x="16" y="128.5234">domain-model-plugin</text><!--entity domain-model--><rect fill="#FEFECE" filter="url(#f18p9f7o8110ps)" height="52.9766" style="stroke: #A80036; stroke-width: 1.5;" width="123" x="32" y="220.5"/><rect fill="#FEFECE" height="5" style="stroke: #A80036; stroke-width: 1.5;" width="10" x="27" y="225.5"/><rect fill="#FEFECE" height="5" style="stroke: #A80036; stroke-width: 1.5;" width="10" x="27" y="263.4766"/><text fill="#000000" font-family="sans-serif" font-size="14" font-style="italic" lengthAdjust="spacingAndGlyphs" textLength="95" x="46" y="244.0352">«project type»</text><text fill="#000000" font-family="sans-serif" font-size="14" lengthAdjust="spacingAndGlyphs" textLength="103" x="42" y="260.5234">domain-model</text><!--entity generator--><rect fill="#FEFECE" filter="url(#f18p9f7o8110ps)" height="52.9766" style="stroke: #A80036; stroke-width: 1.5;" width="115" x="596" y="310.5"/><rect fill="#FEFECE" height="5" style="stroke: #A80036; stroke-width: 1.5;" width="10" x="591" y="315.5"/><rect fill="#FEFECE" height="5" style="stroke: #A80036; stroke-width: 1.5;" width="10" x="591" y="353.4766"/><text fill="#000000" font-family="sans-serif" font-size="14" font-style="italic" lengthAdjust="spacingAndGlyphs" textLength="95" x="606" y="334.0352">«project type»</text><text fill="#000000" font-family="sans-serif" font-size="14" lengthAdjust="spacingAndGlyphs" textLength="68" x="619.5" y="350.5234">generator</text><!--entity model--><rect fill="#FEFECE" filter="url(#f18p9f7o8110ps)" height="52.9766" style="stroke: #A80036; stroke-width: 1.5;" width="115" x="331" y="310.5"/><rect fill="#FEFECE" height="5" style="stroke: #A80036; stroke-width: 1.5;" width="10" x="326" y="315.5"/><rect fill="#FEFECE" height="5" style="stroke: #A80036; stroke-width: 1.5;" width="10" x="326" y="353.4766"/><text fill="#000000" font-family="sans-serif" font-size="14" font-style="italic" lengthAdjust="spacingAndGlyphs" textLength="95" x="341" y="334.0352">«project type»</text><text fill="#000000" font-family="sans-serif" font-size="14" lengthAdjust="spacingAndGlyphs" textLength="43" x="367" y="350.5234">model</text><!--entity plugin--><rect fill="#FEFECE" filter="url(#f18p9f7o8110ps)" height="52.9766" style="stroke: #A80036; stroke-width: 1.5;" width="115" x="331" y="8.5"/><rect fill="#FEFECE" height="5" style="stroke: #A80036; stroke-width: 1.5;" width="10" x="326" y="13.5"/><rect fill="#FEFECE" height="5" style="stroke: #A80036; stroke-width: 1.5;" width="10" x="326" y="51.4766"/><text fill="#000000" font-family="sans-serif" font-size="14" font-style="italic" lengthAdjust="spacingAndGlyphs" textLength="95" x="341" y="32.0352">«project type»</text><text fill="#000000" font-family="sans-serif" font-size="14" lengthAdjust="spacingAndGlyphs" textLength="44" x="366.5" y="48.5234">plugin</text><!--entity project-group--><rect fill="#FEFECE" filter="url(#f18p9f7o8110ps)" height="52.9766" style="stroke: #A80036; stroke-width: 1.5;" width="118" x="34.5" y="396.5"/><rect fill="#FEFECE" height="5" style="stroke: #A80036; stroke-width: 1.5;" width="10" x="29.5" y="401.5"/><rect fill="#FEFECE" height="5" style="stroke: #A80036; stroke-width: 1.5;" width="10" x="29.5" y="439.4766"/><text fill="#000000" font-family="sans-serif" font-size="14" font-style="italic" lengthAdjust="spacingAndGlyphs" textLength="95" x="46" y="420.0352">«project type»</text><text fill="#000000" font-family="sans-serif" font-size="14" lengthAdjust="spacingAndGlyphs" textLength="98" x="44.5" y="436.5234">project-group</text><!--entity project-types--><rect fill="#FEFECE" filter="url(#f18p9f7o8110ps)" height="52.9766" style="stroke: #A80036; stroke-width: 1.5;" width="115" x="36" y="308.5"/><rect fill="#FEFECE" height="5" style="stroke: #A80036; stroke-width: 1.5;" width="10" x="31" y="313.5"/><rect fill="#FEFECE" height="5" style="stroke: #A80036; stroke-width: 1.5;" width="10" x="31" y="351.4766"/><text fill="#000000" font-family="sans-serif" font-size="14" font-style="italic" lengthAdjust="spacingAndGlyphs" textLength="95" x="46" y="332.0352">«project type»</text><text fill="#000000" font-family="sans-serif" font-size="14" lengthAdjust="spacingAndGlyphs" textLength="92" x="47.5" y="348.5234">project-types</text><!--entity template--><rect fill="#FEFECE" filter="url(#f18p9f7o8110ps)" height="52.9766" style="stroke: #A80036; stroke-width: 1.5;" width="115" x="331" y="474.5"/><rect fill="#FEFECE" height="5" style="stroke: #A80036; stroke-width: 1.5;" width="10" x="326" y="479.5"/><rect fill="#FEFECE" height="5" style="stroke: #A80036; stroke-width: 1.5;" width="10" x="326" y="517.4766"/><text fill="#000000" font-family="sans-serif" font-size="14" font-style="italic" lengthAdjust="spacingAndGlyphs" textLength="95" x="341" y="498.0352">«project type»</text><text fill="#000000" font-family="sans-serif" font-size="14" lengthAdjust="spacingAndGlyphs" textLength="60" x="358.5" y="514.5234">template</text><!--entity metamodel--><rect fill="#FEFECE" filter="url(#f18p9f7o8110ps)" height="36.4883" style="stroke: #A80036; stroke-width: 1.5;" width="97" x="340" y="168"/><rect fill="#FEFECE" height="5" style="stroke: #A80036; stroke-width: 1.5;" width="10" x="335" y="173"/><rect fill="#FEFECE" height="5" style="stroke: #A80036; stroke-width: 1.5;" width="10" x="335" y="194.4883"/><text fill="#000000" font-family="sans-serif" font-size="14" lengthAdjust="spacingAndGlyphs" textLength="77" x="350" y="191.5352">metamodel</text><!--entity domain-model-plugin.project-template--><rect fill="#FEFECE" filter="url(#f18p9f7o8110ps)" height="36.4883" style="stroke: #A80036; stroke-width: 1.5;" width="295" x="241" y="97"/><rect fill="#FEFECE" height="5" style="stroke: #A80036; stroke-width: 1.5;" width="10" x="236" y="102"/><rect fill="#FEFECE" height="5" style="stroke: #A80036; stroke-width: 1.5;" width="10" x="236" y="123.4883"/><text fill="#000000" font-family="sans-serif" font-size="14" lengthAdjust="spacingAndGlyphs" textLength="275" x="251" y="120.5352">domain-model-plugin.project-template</text><!--entity domain-model.project-template--><rect fill="#FEFECE" filter="url(#f18p9f7o8110ps)" height="36.4883" style="stroke: #A80036; stroke-width: 1.5;" width="243" x="267" y="239"/><rect fill="#FEFECE" height="5" style="stroke: #A80036; stroke-width: 1.5;" width="10" x="262" y="244"/><rect fill="#FEFECE" height="5" style="stroke: #A80036; stroke-width: 1.5;" width="10" x="262" y="265.4883"/><text fill="#000000" font-family="sans-serif" font-size="14" lengthAdjust="spacingAndGlyphs" textLength="223" x="277" y="262.5352">domain-model.project-template</text><!--entity project.project-types--><rect fill="#FEFECE" filter="url(#f18p9f7o8110ps)" height="36.4883" style="stroke: #A80036; stroke-width: 1.5;" width="164" x="802.5" y="106"/><rect fill="#FEFECE" height="5" style="stroke: #A80036; stroke-width: 1.5;" width="10" x="797.5" y="111"/><rect fill="#FEFECE" height="5" style="stroke: #A80036; stroke-width: 1.5;" width="10" x="797.5" y="132.4883"/><text fill="#000000" font-family="sans-serif" font-size="14" lengthAdjust="spacingAndGlyphs" textLength="144" x="812.5" y="129.5352">project.project-types</text><!--entity project.domain-model--><rect fill="#FEFECE" filter="url(#f18p9f7o8110ps)" height="36.4883" style="stroke: #A80036; stroke-width: 1.5;" width="175" x="797" y="177"/><rect fill="#FEFECE" height="5" style="stroke: #A80036; stroke-width: 1.5;" width="10" x="792" y="182"/><rect fill="#FEFECE" height="5" style="stroke: #A80036; stroke-width: 1.5;" width="10" x="792" y="203.4883"/><text fill="#000000" font-family="sans-serif" font-size="14" lengthAdjust="spacingAndGlyphs" textLength="155" x="807" y="200.5352">project.domain-model</text><!--entity common-model--><rect fill="#FEFECE" filter="url(#f18p9f7o8110ps)" height="36.4883" style="stroke: #A80036; stroke-width: 1.5;" width="131" x="819" y="248"/><rect fill="#FEFECE" height="5" style="stroke: #A80036; stroke-width: 1.5;" width="10" x="814" y="253"/><rect fill="#FEFECE" height="5" style="stroke: #A80036; stroke-width: 1.5;" width="10" x="814" y="274.4883"/><text fill="#000000" font-family="sans-serif" font-size="14" lengthAdjust="spacingAndGlyphs" textLength="111" x="829" y="271.5352">common-model</text><!--entity generator.project-template--><rect fill="#FEFECE" filter="url(#f18p9f7o8110ps)" height="36.4883" style="stroke: #A80036; stroke-width: 1.5;" width="208" x="780.5" y="319"/><rect fill="#FEFECE" height="5" style="stroke: #A80036; stroke-width: 1.5;" width="10" x="775.5" y="324"/><rect fill="#FEFECE" height="5" style="stroke: #A80036; stroke-width: 1.5;" width="10" x="775.5" y="345.4883"/><text fill="#000000" font-family="sans-serif" font-size="14" lengthAdjust="spacingAndGlyphs" textLength="188" x="790.5" y="342.5352">generator.project-template</text><!--entity metamodel-plugin--><rect fill="#FEFECE" filter="url(#f18p9f7o8110ps)" height="36.4883" style="stroke: #A80036; stroke-width: 1.5;" width="149" x="810" y="390"/><rect fill="#FEFECE" height="5" style="stroke: #A80036; stroke-width: 1.5;" width="10" x="805" y="395"/><rect fill="#FEFECE" height="5" style="stroke: #A80036; stroke-width: 1.5;" width="10" x="805" y="416.4883"/><text fill="#000000" font-family="sans-serif" font-size="14" lengthAdjust="spacingAndGlyphs" textLength="129" x="820" y="413.5352">metamodel-plugin</text><!--entity project.domain-model-plugin--><rect fill="#FEFECE" filter="url(#f18p9f7o8110ps)" height="36.4883" style="stroke: #A80036; stroke-width: 1.5;" width="227" x="771" y="461"/><rect fill="#FEFECE" height="5" style="stroke: #A80036; stroke-width: 1.5;" width="10" x="766" y="466"/><rect fill="#FEFECE" height="5" style="stroke: #A80036; stroke-width: 1.5;" width="10" x="766" y="487.4883"/><text fill="#000000" font-family="sans-serif" font-size="14" lengthAdjust="spacingAndGlyphs" textLength="207" x="781" y="484.5352">project.domain-model-plugin</text><!--entity common-model-plugin--><rect fill="#FEFECE" filter="url(#f18p9f7o8110ps)" height="36.4883" style="stroke: #A80036; stroke-width: 1.5;" width="183" x="793" y="532"/><rect fill="#FEFECE" height="5" style="stroke: #A80036; stroke-width: 1.5;" width="10" x="788" y="537"/><rect fill="#FEFECE" height="5" style="stroke: #A80036; stroke-width: 1.5;" width="10" x="788" y="558.4883"/><text fill="#000000" font-family="sans-serif" font-size="14" lengthAdjust="spacingAndGlyphs" textLength="163" x="803" y="555.5352">common-model-plugin</text><!--entity project-group.project-template--><rect fill="#FEFECE" filter="url(#f18p9f7o8110ps)" height="36.4883" style="stroke: #A80036; stroke-width: 1.5;" width="238" x="269.5" y="403"/><rect fill="#FEFECE" height="5" style="stroke: #A80036; stroke-width: 1.5;" width="10" x="264.5" y="408"/><rect fill="#FEFECE" height="5" style="stroke: #A80036; stroke-width: 1.5;" width="10" x="264.5" y="429.4883"/><text fill="#000000" font-family="sans-serif" font-size="14" lengthAdjust="spacingAndGlyphs" textLength="218" x="279.5" y="426.5352">project-group.project-template</text><!--link domain-model-plugin to plugin--><path d="M181.22,91.32 C227.6,78.66 283.62,63.36 325.57,51.91 " fill="none" id="domain-model-plugin-plugin" style="stroke: #A80036; stroke-width: 1.0;"/><polygon fill="#A80036" points="330.62,50.53,320.8854,49.0341,325.7955,51.8432,322.9865,56.7533,330.62,50.53" style="stroke: #A80036; stroke-width: 1.0;"/><!--link domain-model to model--><path d="M155.21,265.65 C205.22,281.01 275.83,302.7 326.05,318.12 " fill="none" id="domain-model-model" style="stroke: #A80036; stroke-width: 1.0;"/><polygon fill="#A80036" points="330.84,319.6,323.4184,313.1254,326.062,318.1266,321.0609,320.7702,330.84,319.6" style="stroke: #A80036; stroke-width: 1.0;"/><!--link model to generator--><path d="M446.24,337 C488.76,337 546.89,337 590.6,337 " fill="none" id="model-generator" style="stroke: #A80036; stroke-width: 1.0;"/><polygon fill="#A80036" points="595.86,337,586.86,333,590.86,337,586.86,341,595.86,337" style="stroke: #A80036; stroke-width: 1.0;"/><!--link plugin to generator--><path d="M446.06,40.66 C475.8,46.22 511.13,57.22 536,79 C605.67,140.01 635.89,250.97 647,305.31 " fill="none" id="plugin-generator" style="stroke: #A80036; stroke-width: 1.0;"/><polygon fill="#A80036" points="648.01,310.39,650.1619,300.7791,647.0267,305.4876,642.3181,302.3524,648.01,310.39" style="stroke: #A80036; stroke-width: 1.0;"/><!--link project-group to model--><path d="M152.74,405.91 C202.86,391.2 274.95,370.04 325.99,355.05 " fill="none" id="project-group-model" style="stroke: #A80036; stroke-width: 1.0;"/><polygon fill="#A80036" points="330.87,353.62,321.11,352.3,326.07,355.02,323.35,359.98,330.87,353.62" style="stroke: #A80036; stroke-width: 1.0;"/><!--link project-types to model--><path d="M151.34,335.39 C201.38,335.73 274.09,336.23 325.59,336.58 " fill="none" id="project-types-model" style="stroke: #A80036; stroke-width: 1.0;"/><polygon fill="#A80036" points="330.82,336.61,321.843,332.5586,325.8201,336.5814,321.7973,340.5585,330.82,336.61" style="stroke: #A80036; stroke-width: 1.0;"/><!--link template to generator--><path d="M446.2,491.03 C474.59,484.34 508.65,473.62 536,457 C574.28,433.74 608.72,394.95 630.06,367.78 " fill="none" id="template-generator" style="stroke: #A80036; stroke-width: 1.0;"/><polygon fill="#A80036" points="633.37,363.52,624.6836,368.1619,630.2973,367.4645,630.9948,373.0781,633.37,363.52" style="stroke: #A80036; stroke-width: 1.0;"/><!--link domain-model-plugin to metamodel--><path d="M181.22,136.01 C231,148.08 291.9,162.83 334.58,173.18 " fill="none" id="domain-model-plugin-metamodel" style="stroke: #A80036; stroke-width: 1.0; stroke-dasharray: 7.0,7.0;"/><polygon fill="#A80036" points="339.69,174.41,331.8787,168.4114,334.8294,173.2377,330.003,176.1884,339.69,174.41" style="stroke: #A80036; stroke-width: 1.0;"/><!--link domain-model-plugin to domain-model-plugin.project-template--><path d="M181.22,115 C198.42,115 216.94,115 235.59,115 " fill="none" id="domain-model-plugin-domain-model-plugin.project-template" style="stroke: #A80036; stroke-width: 1.0; stroke-dasharray: 7.0,7.0;"/><polygon fill="#A80036" points="240.85,115,231.85,111,235.85,115,231.85,119,240.85,115" style="stroke: #A80036; stroke-width: 1.0;"/><!--link domain-model to metamodel--><path d="M155.21,234.36 C208.2,223.33 284.32,207.48 334.79,196.97 " fill="none" id="domain-model-metamodel" style="stroke: #A80036; stroke-width: 1.0; stroke-dasharray: 7.0,7.0;"/><polygon fill="#A80036" points="339.9,195.91,330.2748,193.8229,335.0044,196.9263,331.901,201.6559,339.9,195.91" style="stroke: #A80036; stroke-width: 1.0;"/><!--link domain-model to domain-model.project-template--><path d="M155.21,249.07 C185.96,250.12 224.51,251.44 261.31,252.69 " fill="none" id="domain-model-domain-model.project-template" style="stroke: #A80036; stroke-width: 1.0; stroke-dasharray: 7.0,7.0;"/><polygon fill="#A80036" points="266.72,252.88,257.8623,248.574,261.7229,252.7087,257.5882,256.5693,266.72,252.88" style="stroke: #A80036; stroke-width: 1.0;"/><!--link generator to project.project-types--><path d="M664.9,310.49 C681.5,271.57 717.64,199.27 771,159 C779.07,152.91 788.21,147.87 797.72,143.7 " fill="none" id="generator-project.project-types" style="stroke: #A80036; stroke-width: 1.0; stroke-dasharray: 7.0,7.0;"/><polygon fill="#A80036" points="802.41,141.72,792.5628,141.5369,797.804,143.6654,795.6755,148.9065,802.41,141.72" style="stroke: #A80036; stroke-width: 1.0;"/><!--link generator to project.domain-model--><path d="M677.37,310.09 C699.18,285.98 734.11,251.23 771,230 C781.24,224.11 792.58,219.09 804.01,214.86 " fill="none" id="generator-project.domain-model" style="stroke: #A80036; stroke-width: 1.0; stroke-dasharray: 7.0,7.0;"/><polygon fill="#A80036" points="808.91,213.09,799.088,212.3633,804.2036,214.778,801.7888,219.8936,808.91,213.09" style="stroke: #A80036; stroke-width: 1.0;"/><!--link generator to common-model--><path d="M711.11,319.45 C744.18,309.19 786,296.23 820.17,285.64 " fill="none" id="generator-common-model" style="stroke: #A80036; stroke-width: 1.0; stroke-dasharray: 7.0,7.0;"/><polygon fill="#A80036" points="825.15,284.09,815.3677,282.9465,820.3761,285.5765,817.7461,290.5848,825.15,284.09" style="stroke: #A80036; stroke-width: 1.0;"/><!--link generator to generator.project-template--><path d="M711.11,337 C730.56,337 753.04,337 775.21,337 " fill="none" id="generator-generator.project-template" style="stroke: #A80036; stroke-width: 1.0; stroke-dasharray: 7.0,7.0;"/><polygon fill="#A80036" points="780.24,337,771.24,333,775.24,337,771.24,341,780.24,337" style="stroke: #A80036; stroke-width: 1.0;"/><!--link generator to metamodel-plugin--><path d="M711.11,354.55 C744.18,364.81 786,377.77 820.17,388.36 " fill="none" id="generator-metamodel-plugin" style="stroke: #A80036; stroke-width: 1.0; stroke-dasharray: 7.0,7.0;"/><polygon fill="#A80036" points="825.15,389.91,817.7461,383.4152,820.3761,388.4235,815.3677,391.0535,825.15,389.91" style="stroke: #A80036; stroke-width: 1.0;"/><!--link generator to project.domain-model-plugin--><path d="M677.37,363.91 C699.18,388.02 734.11,422.77 771,444 C781.24,449.89 792.58,454.91 804.01,459.14 " fill="none" id="generator-project.domain-model-plugin" style="stroke: #A80036; stroke-width: 1.0; stroke-dasharray: 7.0,7.0;"/><polygon fill="#A80036" points="808.91,460.91,801.7888,454.1064,804.2036,459.222,799.088,461.6367,808.91,460.91" style="stroke: #A80036; stroke-width: 1.0;"/><!--link generator to common-model-plugin--><path d="M664.9,363.51 C681.5,402.43 717.64,474.73 771,515 C778.79,520.88 787.58,525.78 796.72,529.86 " fill="none" id="generator-common-model-plugin" style="stroke: #A80036; stroke-width: 1.0; stroke-dasharray: 7.0,7.0;"/><polygon fill="#A80036" points="801.54,531.93,794.8515,524.7006,796.9465,529.9552,791.6919,532.0502,801.54,531.93" style="stroke: #A80036; stroke-width: 1.0;"/><!--link project-group to project-group.project-template--><path d="M152.74,422.6 C184.68,422.38 225.55,422.11 264.21,421.84 " fill="none" id="project-group-project-group.project-template" style="stroke: #A80036; stroke-width: 1.0; stroke-dasharray: 7.0,7.0;"/><polygon fill="#A80036" points="269.4,421.81,260.3773,417.8615,264.4001,421.8386,260.423,425.8614,269.4,421.81" style="stroke: #A80036; stroke-width: 1.0;"/><!--
@startuml
left to right direction

[domain-model-plugin] <<project type>>
[domain-model] <<project type>>
[generator] <<project type>>
[model] <<project type>>
[plugin] <<project type>>
[project-group] <<project type>>
[project-types] <<project type>>
[template] <<project type>>


[domain-model-plugin] - -> [plugin]
[domain-model] - -> [model]
[model] - -> [generator]
[plugin] - -> [generator]
[project-group] - -> [model]
[project-types] - -> [model]
[template] - -> [generator]





  [domain-model-plugin] ..> [metamodel]
  [domain-model-plugin] ..> [domain-model-plugin.project-template]

  [domain-model] ..> [metamodel]
  [domain-model] ..> [domain-model.project-template]

  [generator] ..> [project.project-types]
  [generator] ..> [project.domain-model]
  [generator] ..> [common-model]
  [generator] ..> [generator.project-template]
  [generator] ..> [metamodel-plugin]
  [generator] ..> [project.domain-model-plugin]
  [generator] ..> [common-model-plugin]



  [project-group] ..> [project-group.project-template]




@enduml

PlantUML version 1.2019.05(Sun Apr 21 01:45:36 JST 2019)
(GPL source distribution)
Java Runtime: OpenJDK Runtime Environment
JVM: OpenJDK 64-Bit Server VM
Java Version: 1.8.0_222-b10
Operating System: Mac OS X
OS Version: 10.15.4
Default Encoding: UTF-8
Language: en
Country: JP
--></g></svg>