<?xml version="1.0" encoding="UTF-8" standalone="no"?><svg xmlns="http://www.w3.org/2000/svg" xmlns:xlink="http://www.w3.org/1999/xlink" contentScriptType="application/ecmascript" contentStyleType="text/css" height="1244px" preserveAspectRatio="none" style="width:1009px;height:1244px;" version="1.1" viewBox="0 0 1009 1244" width="1009px" zoomAndPan="magnify"><defs><filter height="300%" id="fx83m1uojlxjm" width="300%" x="-1" y="-1"><feGaussianBlur result="blurOut" stdDeviation="2.0"/><feColorMatrix in="blurOut" result="blurOut2" type="matrix" values="0 0 0 0 0 0 0 0 0 0 0 0 0 0 0 0 0 0 .4 0"/><feOffset dx="4.0" dy="4.0" in="blurOut2" result="blurOut3"/><feBlend in="SourceGraphic" in2="blurOut3" mode="normal"/></filter></defs><g><!--entity arch-model--><rect fill="#FEFECE" filter="url(#fx83m1uojlxjm)" height="52.9766" style="stroke: #A80036; stroke-width: 1.5;" width="115" x="36" y="833.5"/><rect fill="#FEFECE" height="5" style="stroke: #A80036; stroke-width: 1.5;" width="10" x="31" y="838.5"/><rect fill="#FEFECE" height="5" style="stroke: #A80036; stroke-width: 1.5;" width="10" x="31" y="876.4766"/><text fill="#000000" font-family="sans-serif" font-size="14" font-style="italic" lengthAdjust="spacingAndGlyphs" textLength="95" x="46" y="857.0352">«project type»</text><text fill="#000000" font-family="sans-serif" font-size="14" lengthAdjust="spacingAndGlyphs" textLength="81" x="53" y="873.5234">arch-model</text><!--entity domain-model-plugin--><rect fill="#FEFECE" filter="url(#fx83m1uojlxjm)" height="52.9766" style="stroke: #A80036; stroke-width: 1.5;" width="175" x="6" y="301.5"/><rect fill="#FEFECE" height="5" style="stroke: #A80036; stroke-width: 1.5;" width="10" x="1" y="306.5"/><rect fill="#FEFECE" height="5" style="stroke: #A80036; stroke-width: 1.5;" width="10" x="1" y="344.4766"/><text fill="#000000" font-family="sans-serif" font-size="14" font-style="italic" lengthAdjust="spacingAndGlyphs" textLength="95" x="46" y="325.0352">«project type»</text><text fill="#000000" font-family="sans-serif" font-size="14" lengthAdjust="spacingAndGlyphs" textLength="155" x="16" y="341.5234">domain-model-plugin</text><!--entity domain-model--><rect fill="#FEFECE" filter="url(#fx83m1uojlxjm)" height="52.9766" style="stroke: #A80036; stroke-width: 1.5;" width="123" x="32" y="531.5"/><rect fill="#FEFECE" height="5" style="stroke: #A80036; stroke-width: 1.5;" width="10" x="27" y="536.5"/><rect fill="#FEFECE" height="5" style="stroke: #A80036; stroke-width: 1.5;" width="10" x="27" y="574.4766"/><text fill="#000000" font-family="sans-serif" font-size="14" font-style="italic" lengthAdjust="spacingAndGlyphs" textLength="95" x="46" y="555.0352">«project type»</text><text fill="#000000" font-family="sans-serif" font-size="14" lengthAdjust="spacingAndGlyphs" textLength="103" x="42" y="571.5234">domain-model</text><!--entity generator--><rect fill="#FEFECE" filter="url(#fx83m1uojlxjm)" height="52.9766" style="stroke: #A80036; stroke-width: 1.5;" width="115" x="596" y="238.5"/><rect fill="#FEFECE" height="5" style="stroke: #A80036; stroke-width: 1.5;" width="10" x="591" y="243.5"/><rect fill="#FEFECE" height="5" style="stroke: #A80036; stroke-width: 1.5;" width="10" x="591" y="281.4766"/><text fill="#000000" font-family="sans-serif" font-size="14" font-style="italic" lengthAdjust="spacingAndGlyphs" textLength="95" x="606" y="262.0352">«project type»</text><text fill="#000000" font-family="sans-serif" font-size="14" lengthAdjust="spacingAndGlyphs" textLength="68" x="619.5" y="278.5234">generator</text><!--entity model--><rect fill="#FEFECE" filter="url(#fx83m1uojlxjm)" height="52.9766" style="stroke: #A80036; stroke-width: 1.5;" width="115" x="331" y="753.5"/><rect fill="#FEFECE" height="5" style="stroke: #A80036; stroke-width: 1.5;" width="10" x="326" y="758.5"/><rect fill="#FEFECE" height="5" style="stroke: #A80036; stroke-width: 1.5;" width="10" x="326" y="796.4766"/><text fill="#000000" font-family="sans-serif" font-size="14" font-style="italic" lengthAdjust="spacingAndGlyphs" textLength="95" x="341" y="777.0352">«project type»</text><text fill="#000000" font-family="sans-serif" font-size="14" lengthAdjust="spacingAndGlyphs" textLength="43" x="367" y="793.5234">model</text><!--entity plugin--><rect fill="#FEFECE" filter="url(#fx83m1uojlxjm)" height="52.9766" style="stroke: #A80036; stroke-width: 1.5;" width="115" x="331" y="238.5"/><rect fill="#FEFECE" height="5" style="stroke: #A80036; stroke-width: 1.5;" width="10" x="326" y="243.5"/><rect fill="#FEFECE" height="5" style="stroke: #A80036; stroke-width: 1.5;" width="10" x="326" y="281.4766"/><text fill="#000000" font-family="sans-serif" font-size="14" font-style="italic" lengthAdjust="spacingAndGlyphs" textLength="95" x="341" y="262.0352">«project type»</text><text fill="#000000" font-family="sans-serif" font-size="14" lengthAdjust="spacingAndGlyphs" textLength="44" x="366.5" y="278.5234">plugin</text><!--entity project-group--><rect fill="#FEFECE" filter="url(#fx83m1uojlxjm)" height="52.9766" style="stroke: #A80036; stroke-width: 1.5;" width="118" x="34.5" y="1098.5"/><rect fill="#FEFECE" height="5" style="stroke: #A80036; stroke-width: 1.5;" width="10" x="29.5" y="1103.5"/><rect fill="#FEFECE" height="5" style="stroke: #A80036; stroke-width: 1.5;" width="10" x="29.5" y="1141.4766"/><text fill="#000000" font-family="sans-serif" font-size="14" font-style="italic" lengthAdjust="spacingAndGlyphs" textLength="95" x="46" y="1122.0352">«project type»</text><text fill="#000000" font-family="sans-serif" font-size="14" lengthAdjust="spacingAndGlyphs" textLength="98" x="44.5" y="1138.5234">project-group</text><!--entity schema-model--><rect fill="#FEFECE" filter="url(#fx83m1uojlxjm)" height="52.9766" style="stroke: #A80036; stroke-width: 1.5;" width="123" x="32" y="646.5"/><rect fill="#FEFECE" height="5" style="stroke: #A80036; stroke-width: 1.5;" width="10" x="27" y="651.5"/><rect fill="#FEFECE" height="5" style="stroke: #A80036; stroke-width: 1.5;" width="10" x="27" y="689.4766"/><text fill="#000000" font-family="sans-serif" font-size="14" font-style="italic" lengthAdjust="spacingAndGlyphs" textLength="95" x="46" y="670.0352">«project type»</text><text fill="#000000" font-family="sans-serif" font-size="14" lengthAdjust="spacingAndGlyphs" textLength="103" x="42" y="686.5234">schema-model</text><!--entity schema-plugin--><rect fill="#FEFECE" filter="url(#fx83m1uojlxjm)" height="52.9766" style="stroke: #A80036; stroke-width: 1.5;" width="124" x="31.5" y="407.5"/><rect fill="#FEFECE" height="5" style="stroke: #A80036; stroke-width: 1.5;" width="10" x="26.5" y="412.5"/><rect fill="#FEFECE" height="5" style="stroke: #A80036; stroke-width: 1.5;" width="10" x="26.5" y="450.4766"/><text fill="#000000" font-family="sans-serif" font-size="14" font-style="italic" lengthAdjust="spacingAndGlyphs" textLength="95" x="46" y="431.0352">«project type»</text><text fill="#000000" font-family="sans-serif" font-size="14" lengthAdjust="spacingAndGlyphs" textLength="104" x="41.5" y="447.5234">schema-plugin</text><!--entity service-generator--><rect fill="#FEFECE" filter="url(#fx83m1uojlxjm)" height="52.9766" style="stroke: #A80036; stroke-width: 1.5;" width="143" x="22" y="948.5"/><rect fill="#FEFECE" height="5" style="stroke: #A80036; stroke-width: 1.5;" width="10" x="17" y="953.5"/><rect fill="#FEFECE" height="5" style="stroke: #A80036; stroke-width: 1.5;" width="10" x="17" y="991.4766"/><text fill="#000000" font-family="sans-serif" font-size="14" font-style="italic" lengthAdjust="spacingAndGlyphs" textLength="95" x="46" y="972.0352">«project type»</text><text fill="#000000" font-family="sans-serif" font-size="14" lengthAdjust="spacingAndGlyphs" textLength="123" x="32" y="988.5234">service-generator</text><!--entity template--><rect fill="#FEFECE" filter="url(#fx83m1uojlxjm)" height="52.9766" style="stroke: #A80036; stroke-width: 1.5;" width="115" x="331" y="150.5"/><rect fill="#FEFECE" height="5" style="stroke: #A80036; stroke-width: 1.5;" width="10" x="326" y="155.5"/><rect fill="#FEFECE" height="5" style="stroke: #A80036; stroke-width: 1.5;" width="10" x="326" y="193.4766"/><text fill="#000000" font-family="sans-serif" font-size="14" font-style="italic" lengthAdjust="spacingAndGlyphs" textLength="95" x="341" y="174.0352">«project type»</text><text fill="#000000" font-family="sans-serif" font-size="14" lengthAdjust="spacingAndGlyphs" textLength="60" x="358.5" y="190.5234">template</text><!--entity datasource.schema-plugin--><rect fill="#FEFECE" filter="url(#fx83m1uojlxjm)" height="36.4883" style="stroke: #A80036; stroke-width: 1.5;" width="204" x="286.5" y="913"/><rect fill="#FEFECE" height="5" style="stroke: #A80036; stroke-width: 1.5;" width="10" x="281.5" y="918"/><rect fill="#FEFECE" height="5" style="stroke: #A80036; stroke-width: 1.5;" width="10" x="281.5" y="939.4883"/><text fill="#000000" font-family="sans-serif" font-size="14" lengthAdjust="spacingAndGlyphs" textLength="184" x="296.5" y="936.5352">datasource.schema-plugin</text><!--entity service-api.schema-plugin--><rect fill="#FEFECE" filter="url(#fx83m1uojlxjm)" height="36.4883" style="stroke: #A80036; stroke-width: 1.5;" width="204" x="286.5" y="842"/><rect fill="#FEFECE" height="5" style="stroke: #A80036; stroke-width: 1.5;" width="10" x="281.5" y="847"/><rect fill="#FEFECE" height="5" style="stroke: #A80036; stroke-width: 1.5;" width="10" x="281.5" y="868.4883"/><text fill="#000000" font-family="sans-serif" font-size="14" lengthAdjust="spacingAndGlyphs" textLength="184" x="296.5" y="865.5352">service-api.schema-plugin</text><!--entity metamodel--><rect fill="#FEFECE" filter="url(#fx83m1uojlxjm)" height="36.4883" style="stroke: #A80036; stroke-width: 1.5;" width="97" x="340" y="469"/><rect fill="#FEFECE" height="5" style="stroke: #A80036; stroke-width: 1.5;" width="10" x="335" y="474"/><rect fill="#FEFECE" height="5" style="stroke: #A80036; stroke-width: 1.5;" width="10" x="335" y="495.4883"/><text fill="#000000" font-family="sans-serif" font-size="14" lengthAdjust="spacingAndGlyphs" textLength="77" x="350" y="492.5352">metamodel</text><!--entity common-model--><rect fill="#FEFECE" filter="url(#fx83m1uojlxjm)" height="36.4883" style="stroke: #A80036; stroke-width: 1.5;" width="131" x="323" y="327"/><rect fill="#FEFECE" height="5" style="stroke: #A80036; stroke-width: 1.5;" width="10" x="318" y="332"/><rect fill="#FEFECE" height="5" style="stroke: #A80036; stroke-width: 1.5;" width="10" x="318" y="353.4883"/><text fill="#000000" font-family="sans-serif" font-size="14" lengthAdjust="spacingAndGlyphs" textLength="111" x="333" y="350.5352">common-model</text><!--entity domain-model-plugin.project-template--><rect fill="#FEFECE" filter="url(#fx83m1uojlxjm)" height="36.4883" style="stroke: #A80036; stroke-width: 1.5;" width="295" x="241" y="8"/><rect fill="#FEFECE" height="5" style="stroke: #A80036; stroke-width: 1.5;" width="10" x="236" y="13"/><rect fill="#FEFECE" height="5" style="stroke: #A80036; stroke-width: 1.5;" width="10" x="236" y="34.4883"/><text fill="#000000" font-family="sans-serif" font-size="14" lengthAdjust="spacingAndGlyphs" textLength="275" x="251" y="31.5352">domain-model-plugin.project-template</text><!--entity metamodel-plugin--><rect fill="#FEFECE" filter="url(#fx83m1uojlxjm)" height="36.4883" style="stroke: #A80036; stroke-width: 1.5;" width="149" x="314" y="540"/><rect fill="#FEFECE" height="5" style="stroke: #A80036; stroke-width: 1.5;" width="10" x="309" y="545"/><rect fill="#FEFECE" height="5" style="stroke: #A80036; stroke-width: 1.5;" width="10" x="309" y="566.4883"/><text fill="#000000" font-family="sans-serif" font-size="14" lengthAdjust="spacingAndGlyphs" textLength="129" x="324" y="563.5352">metamodel-plugin</text><!--entity common-model-plugin--><rect fill="#FEFECE" filter="url(#fx83m1uojlxjm)" height="36.4883" style="stroke: #A80036; stroke-width: 1.5;" width="183" x="793" y="92"/><rect fill="#FEFECE" height="5" style="stroke: #A80036; stroke-width: 1.5;" width="10" x="788" y="97"/><rect fill="#FEFECE" height="5" style="stroke: #A80036; stroke-width: 1.5;" width="10" x="788" y="118.4883"/><text fill="#000000" font-family="sans-serif" font-size="14" lengthAdjust="spacingAndGlyphs" textLength="163" x="803" y="115.5352">common-model-plugin</text><!--entity domain-model.project-template--><rect fill="#FEFECE" filter="url(#fx83m1uojlxjm)" height="36.4883" style="stroke: #A80036; stroke-width: 1.5;" width="243" x="267" y="611"/><rect fill="#FEFECE" height="5" style="stroke: #A80036; stroke-width: 1.5;" width="10" x="262" y="616"/><rect fill="#FEFECE" height="5" style="stroke: #A80036; stroke-width: 1.5;" width="10" x="262" y="637.4883"/><text fill="#000000" font-family="sans-serif" font-size="14" lengthAdjust="spacingAndGlyphs" textLength="223" x="277" y="634.5352">domain-model.project-template</text><!--entity project.project-types--><rect fill="#FEFECE" filter="url(#fx83m1uojlxjm)" height="36.4883" style="stroke: #A80036; stroke-width: 1.5;" width="164" x="802.5" y="318"/><rect fill="#FEFECE" height="5" style="stroke: #A80036; stroke-width: 1.5;" width="10" x="797.5" y="323"/><rect fill="#FEFECE" height="5" style="stroke: #A80036; stroke-width: 1.5;" width="10" x="797.5" y="344.4883"/><text fill="#000000" font-family="sans-serif" font-size="14" lengthAdjust="spacingAndGlyphs" textLength="144" x="812.5" y="341.5352">project.project-types</text><!--entity generator.project-template--><rect fill="#FEFECE" filter="url(#fx83m1uojlxjm)" height="36.4883" style="stroke: #A80036; stroke-width: 1.5;" width="208" x="780.5" y="176"/><rect fill="#FEFECE" height="5" style="stroke: #A80036; stroke-width: 1.5;" width="10" x="775.5" y="181"/><rect fill="#FEFECE" height="5" style="stroke: #A80036; stroke-width: 1.5;" width="10" x="775.5" y="202.4883"/><text fill="#000000" font-family="sans-serif" font-size="14" lengthAdjust="spacingAndGlyphs" textLength="188" x="790.5" y="199.5352">generator.project-template</text><!--entity project.domain-model-plugin--><rect fill="#FEFECE" filter="url(#fx83m1uojlxjm)" height="36.4883" style="stroke: #A80036; stroke-width: 1.5;" width="227" x="771" y="247"/><rect fill="#FEFECE" height="5" style="stroke: #A80036; stroke-width: 1.5;" width="10" x="766" y="252"/><rect fill="#FEFECE" height="5" style="stroke: #A80036; stroke-width: 1.5;" width="10" x="766" y="273.4883"/><text fill="#000000" font-family="sans-serif" font-size="14" lengthAdjust="spacingAndGlyphs" textLength="207" x="781" y="270.5352">project.domain-model-plugin</text><!--entity project-group.project-template--><rect fill="#FEFECE" filter="url(#fx83m1uojlxjm)" height="36.4883" style="stroke: #A80036; stroke-width: 1.5;" width="238" x="269.5" y="1197"/><rect fill="#FEFECE" height="5" style="stroke: #A80036; stroke-width: 1.5;" width="10" x="264.5" y="1202"/><rect fill="#FEFECE" height="5" style="stroke: #A80036; stroke-width: 1.5;" width="10" x="264.5" y="1223.4883"/><text fill="#000000" font-family="sans-serif" font-size="14" lengthAdjust="spacingAndGlyphs" textLength="218" x="279.5" y="1220.5352">project-group.project-template</text><!--entity schema.document-template--><rect fill="#FEFECE" filter="url(#fx83m1uojlxjm)" height="36.4883" style="stroke: #A80036; stroke-width: 1.5;" width="213" x="282" y="682"/><rect fill="#FEFECE" height="5" style="stroke: #A80036; stroke-width: 1.5;" width="10" x="277" y="687"/><rect fill="#FEFECE" height="5" style="stroke: #A80036; stroke-width: 1.5;" width="10" x="277" y="708.4883"/><text fill="#000000" font-family="sans-serif" font-size="14" lengthAdjust="spacingAndGlyphs" textLength="193" x="292" y="705.5352">schema.document-template</text><!--entity schema.plugin-template--><rect fill="#FEFECE" filter="url(#fx83m1uojlxjm)" height="36.4883" style="stroke: #A80036; stroke-width: 1.5;" width="188" x="294.5" y="398"/><rect fill="#FEFECE" height="5" style="stroke: #A80036; stroke-width: 1.5;" width="10" x="289.5" y="403"/><rect fill="#FEFECE" height="5" style="stroke: #A80036; stroke-width: 1.5;" width="10" x="289.5" y="424.4883"/><text fill="#000000" font-family="sans-serif" font-size="14" lengthAdjust="spacingAndGlyphs" textLength="168" x="304.5" y="421.5352">schema.plugin-template</text><!--entity datasource.flyway-migration-template--><rect fill="#FEFECE" filter="url(#fx83m1uojlxjm)" height="36.4883" style="stroke: #A80036; stroke-width: 1.5;" width="285" x="246" y="1126"/><rect fill="#FEFECE" height="5" style="stroke: #A80036; stroke-width: 1.5;" width="10" x="241" y="1131"/><rect fill="#FEFECE" height="5" style="stroke: #A80036; stroke-width: 1.5;" width="10" x="241" y="1152.4883"/><text fill="#000000" font-family="sans-serif" font-size="14" lengthAdjust="spacingAndGlyphs" textLength="265" x="256" y="1149.5352">datasource.flyway-migration-template</text><!--entity service-api.springboot2-template--><rect fill="#FEFECE" filter="url(#fx83m1uojlxjm)" height="36.4883" style="stroke: #A80036; stroke-width: 1.5;" width="253" x="262" y="984"/><rect fill="#FEFECE" height="5" style="stroke: #A80036; stroke-width: 1.5;" width="10" x="257" y="989"/><rect fill="#FEFECE" height="5" style="stroke: #A80036; stroke-width: 1.5;" width="10" x="257" y="1010.4883"/><text fill="#000000" font-family="sans-serif" font-size="14" lengthAdjust="spacingAndGlyphs" textLength="233" x="272" y="1007.5352">service-api.springboot2-template</text><!--link arch-model to model--><path d="M151.34,844.48 C201.48,830.79 274.38,810.88 325.9,796.82 " fill="none" id="arch-model-model" style="stroke: #A80036; stroke-width: 1.0;"/><polygon fill="#A80036" points="330.82,795.48,321.0843,793.9914,325.9965,796.7968,323.1912,801.709,330.82,795.48" style="stroke: #A80036; stroke-width: 1.0;"/><!--link domain-model-plugin to plugin--><path d="M181.22,309.35 C227.6,299.38 283.62,287.34 325.57,278.32 " fill="none" id="domain-model-plugin-plugin" style="stroke: #A80036; stroke-width: 1.0;"/><polygon fill="#A80036" points="330.62,277.23,320.9776,275.2238,325.7331,278.2874,322.6695,283.0429,330.62,277.23" style="stroke: #A80036; stroke-width: 1.0;"/><!--link domain-model to model--><path d="M132.96,584.65 C149.01,596.96 167.12,612.5 181,629 C215.84,670.43 198.8,701.09 241,735 C265.11,754.38 297.54,765.43 325.76,771.73 " fill="none" id="domain-model-model" style="stroke: #A80036; stroke-width: 1.0;"/><polygon fill="#A80036" points="330.97,772.85,323.0033,767.0594,326.0802,771.8063,321.3333,774.8831,330.97,772.85" style="stroke: #A80036; stroke-width: 1.0;"/><!--link model to generator--><path d="M446.28,775.87 C476.82,770.72 512.86,759.45 536,735 C597.11,670.43 636.76,391.75 648.7,296.81 " fill="none" id="model-generator" style="stroke: #A80036; stroke-width: 1.0;"/><polygon fill="#A80036" points="649.35,291.63,644.2527,300.0572,648.7228,296.5905,652.1895,301.0607,649.35,291.63" style="stroke: #A80036; stroke-width: 1.0;"/><!--link plugin to generator--><path d="M446.24,265 C488.76,265 546.89,265 590.6,265 " fill="none" id="plugin-generator" style="stroke: #A80036; stroke-width: 1.0;"/><polygon fill="#A80036" points="595.86,265,586.86,261,590.86,265,586.86,269,595.86,265" style="stroke: #A80036; stroke-width: 1.0;"/><!--link project-group to model--><path d="M121.21,1098.35 C140.21,1078.1 165.08,1048.74 181,1019 C223.79,939.06 176.67,887.9 241,824 C263.44,801.71 296.71,790.64 325.88,785.17 " fill="none" id="project-group-model" style="stroke: #A80036; stroke-width: 1.0;"/><polygon fill="#A80036" points="330.9,784.27,321.3398,781.9029,325.9768,785.143,322.7367,789.78,330.9,784.27" style="stroke: #A80036; stroke-width: 1.0;"/><!--link schema-model to model--><path d="M153.47,699.58 C179.98,711.11 211.8,724.37 241,735 C268.54,745.03 299.5,754.76 325.84,762.59 " fill="none" id="schema-model-model" style="stroke: #A80036; stroke-width: 1.0;"/><polygon fill="#A80036" points="330.7,764.03,323.2026,757.6433,325.905,762.613,320.9354,765.3153,330.7,764.03" style="stroke: #A80036; stroke-width: 1.0;"/><!--link schema-plugin to plugin--><path d="M134.87,407.42 C149.83,396.96 166.64,384.49 181,372 C210.18,346.63 208.05,329.24 241,309 C266.67,293.23 298.36,282.8 325.69,276.07 " fill="none" id="schema-plugin-plugin" style="stroke: #A80036; stroke-width: 1.0;"/><polygon fill="#A80036" points="330.74,274.86,321.0592,273.0482,325.8754,276.0155,322.9081,280.8317,330.74,274.86" style="stroke: #A80036; stroke-width: 1.0;"/><!--link service-generator to generator--><path d="M139.96,1001.57 C227.82,1049.05 422.32,1134.81 536,1037 C650.01,938.9 653.9,430.73 652.92,297.18 " fill="none" id="service-generator-generator" style="stroke: #A80036; stroke-width: 1.0;"/><polygon fill="#A80036" points="652.87,291.84,648.9473,300.874,652.9129,296.8398,656.947,300.8054,652.87,291.84" style="stroke: #A80036; stroke-width: 1.0;"/><!--link template to generator--><path d="M446.14,193.02 C473.44,200.99 506.57,211.04 536,221 C553.97,227.08 573.31,234.17 590.97,240.85 " fill="none" id="template-generator" style="stroke: #A80036; stroke-width: 1.0;"/><polygon fill="#A80036" points="595.9,242.72,588.9215,235.7701,591.2296,240.9347,586.065,243.2427,595.9,242.72" style="stroke: #A80036; stroke-width: 1.0;"/><!--link arch-model to datasource.schema-plugin--><path d="M151.34,873.77 C195.91,884.57 258.46,899.73 307.99,911.73 " fill="none" id="arch-model-datasource.schema-plugin" style="stroke: #A80036; stroke-width: 1.0; stroke-dasharray: 7.0,7.0;"/><polygon fill="#A80036" points="313.05,912.96,305.2387,906.9614,308.1894,911.7877,303.363,914.7384,313.05,912.96" style="stroke: #A80036; stroke-width: 1.0;"/><!--link arch-model to service-api.schema-plugin--><path d="M151.34,860 C188.2,860 237.35,860 281.27,860 " fill="none" id="arch-model-service-api.schema-plugin" style="stroke: #A80036; stroke-width: 1.0; stroke-dasharray: 7.0,7.0;"/><polygon fill="#A80036" points="286.33,860,277.33,856,281.33,860,277.33,864,286.33,860" style="stroke: #A80036; stroke-width: 1.0;"/><!--link domain-model-plugin to metamodel--><path d="M134.76,354.71 C149.71,365.17 166.54,377.63 181,390 C209.89,414.72 207.95,432.19 241,451 C269.73,467.35 305.73,476.32 334.86,481.23 " fill="none" id="domain-model-plugin-metamodel" style="stroke: #A80036; stroke-width: 1.0; stroke-dasharray: 7.0,7.0;"/><polygon fill="#A80036" points="339.84,482.04,331.5972,476.6497,334.9046,481.2389,330.3154,484.5463,339.84,482.04" style="stroke: #A80036; stroke-width: 1.0;"/><!--link domain-model-plugin to common-model--><path d="M181.22,333.03 C224.66,335.55 276.57,338.56 317.45,340.94 " fill="none" id="domain-model-plugin-common-model" style="stroke: #A80036; stroke-width: 1.0; stroke-dasharray: 7.0,7.0;"/><polygon fill="#A80036" points="322.88,341.25,314.1229,336.7431,317.8881,340.9648,313.6665,344.73,322.88,341.25" style="stroke: #A80036; stroke-width: 1.0;"/><!--link domain-model-plugin to domain-model-plugin.project-template--><path d="M102.3,301.44 C118.97,249.36 163.04,133.45 241,71 C254.36,60.3 270.26,52.13 286.58,45.9 " fill="none" id="domain-model-plugin-domain-model-plugin.project-template" style="stroke: #A80036; stroke-width: 1.0; stroke-dasharray: 7.0,7.0;"/><polygon fill="#A80036" points="291.65,44.03,281.8218,43.3921,286.959,45.7605,284.5906,50.8977,291.65,44.03" style="stroke: #A80036; stroke-width: 1.0;"/><!--link domain-model-plugin to metamodel-plugin--><path d="M140.88,354.63 C155.07,364.4 169.86,376.44 181,390 C221.91,439.79 191.4,480.85 241,522 C260.01,537.77 284.89,546.81 308.74,551.93 " fill="none" id="domain-model-plugin-metamodel-plugin" style="stroke: #A80036; stroke-width: 1.0; stroke-dasharray: 7.0,7.0;"/><polygon fill="#A80036" points="313.81,552.96,305.7916,547.2411,308.911,551.9602,304.1919,555.0796,313.81,552.96" style="stroke: #A80036; stroke-width: 1.0;"/><!--link domain-model-plugin to common-model-plugin--><path d="M105.24,301.48 C124.75,257.27 170.62,169.74 241,133 C420.81,39.13 669.11,66.94 798.05,90.98 " fill="none" id="domain-model-plugin-common-model-plugin" style="stroke: #A80036; stroke-width: 1.0; stroke-dasharray: 7.0,7.0;"/><polygon fill="#A80036" points="803.34,91.98,795.2392,86.3785,798.4269,91.0517,793.7538,94.2394,803.34,91.98" style="stroke: #A80036; stroke-width: 1.0;"/><!--link domain-model to metamodel--><path d="M155.06,543.02 C181.45,536.52 212.75,528.85 241,522 C272.1,514.46 306.95,506.13 334.85,499.49 " fill="none" id="domain-model-metamodel" style="stroke: #A80036; stroke-width: 1.0; stroke-dasharray: 7.0,7.0;"/><polygon fill="#A80036" points="339.98,498.27,330.298,496.4646,335.1161,499.4287,332.152,504.2468,339.98,498.27" style="stroke: #A80036; stroke-width: 1.0;"/><!--link domain-model to common-model--><path d="M127.36,531.41 C144.45,516.68 165.04,497.45 181,478 C213.39,438.51 199.67,410 241,380 C263.12,363.94 291.6,355.16 317.56,350.39 " fill="none" id="domain-model-common-model" style="stroke: #A80036; stroke-width: 1.0; stroke-dasharray: 7.0,7.0;"/><polygon fill="#A80036" points="322.72,349.49,313.1677,347.0912,317.7939,350.3467,314.5385,354.9729,322.72,349.49" style="stroke: #A80036; stroke-width: 1.0;"/><!--link domain-model to domain-model.project-template--><path d="M155.21,572.71 C199.53,583.45 260.03,598.11 308.17,609.78 " fill="none" id="domain-model-domain-model.project-template" style="stroke: #A80036; stroke-width: 1.0; stroke-dasharray: 7.0,7.0;"/><polygon fill="#A80036" points="313.09,610.97,305.2787,604.9714,308.2294,609.7977,303.403,612.7484,313.09,610.97" style="stroke: #A80036; stroke-width: 1.0;"/><!--link domain-model to metamodel-plugin--><path d="M155.21,558 C199.68,558 260.45,558 308.67,558 " fill="none" id="domain-model-metamodel-plugin" style="stroke: #A80036; stroke-width: 1.0; stroke-dasharray: 7.0,7.0;"/><polygon fill="#A80036" points="313.89,558,304.89,554,308.89,558,304.89,562,313.89,558" style="stroke: #A80036; stroke-width: 1.0;"/><!--link generator to project.project-types--><path d="M711.11,282.55 C744.18,292.81 786,305.77 820.17,316.36 " fill="none" id="generator-project.project-types" style="stroke: #A80036; stroke-width: 1.0; stroke-dasharray: 7.0,7.0;"/><polygon fill="#A80036" points="825.15,317.91,817.7461,311.4152,820.3761,316.4235,815.3677,319.0535,825.15,317.91" style="stroke: #A80036; stroke-width: 1.0;"/><!--link generator to generator.project-template--><path d="M711.11,247.45 C744.18,237.19 786,224.23 820.17,213.64 " fill="none" id="generator-generator.project-template" style="stroke: #A80036; stroke-width: 1.0; stroke-dasharray: 7.0,7.0;"/><polygon fill="#A80036" points="825.15,212.09,815.3677,210.9465,820.3761,213.5765,817.7461,218.5848,825.15,212.09" style="stroke: #A80036; stroke-width: 1.0;"/><!--link generator to project.domain-model-plugin--><path d="M711.11,265 C727.69,265 746.48,265 765.39,265 " fill="none" id="generator-project.domain-model-plugin" style="stroke: #A80036; stroke-width: 1.0; stroke-dasharray: 7.0,7.0;"/><polygon fill="#A80036" points="770.73,265,761.73,261,765.73,265,761.73,269,770.73,265" style="stroke: #A80036; stroke-width: 1.0;"/><!--link generator to common-model-plugin--><path d="M678.32,238.5 C700.52,214.99 735.47,180.93 771,158 C788.11,146.96 808.18,137.46 826.6,129.89 " fill="none" id="generator-common-model-plugin" style="stroke: #A80036; stroke-width: 1.0; stroke-dasharray: 7.0,7.0;"/><polygon fill="#A80036" points="831.24,128.01,821.3972,127.6647,826.6026,129.8792,824.388,135.0846,831.24,128.01" style="stroke: #A80036; stroke-width: 1.0;"/><!--link project-group to project-group.project-template--><path d="M152.73,1148.77 C179.38,1159.15 211.51,1170.98 241,1180 C259.67,1185.71 279.92,1191.07 299.23,1195.79 " fill="none" id="project-group-project-group.project-template" style="stroke: #A80036; stroke-width: 1.0; stroke-dasharray: 7.0,7.0;"/><polygon fill="#A80036" points="304.11,1196.98,296.3154,1190.9597,299.2526,1195.7942,294.4181,1198.7315,304.11,1196.98" style="stroke: #A80036; stroke-width: 1.0;"/><!--link schema-model to metamodel--><path d="M130.68,646.47 C146.86,633.83 165.69,618 181,602 C211.73,569.89 203.85,546.39 241,522 C268.79,503.75 305.12,495 334.64,490.81 " fill="none" id="schema-model-metamodel" style="stroke: #A80036; stroke-width: 1.0; stroke-dasharray: 7.0,7.0;"/><polygon fill="#A80036" points="339.69,490.12,330.2346,487.3642,334.7352,490.7911,331.3083,495.2918,339.69,490.12" style="stroke: #A80036; stroke-width: 1.0;"/><!--link schema-model to schema.document-template--><path d="M155.21,678.59 C190.32,681.83 235.59,686 276.82,689.8 " fill="none" id="schema-model-schema.document-template" style="stroke: #A80036; stroke-width: 1.0; stroke-dasharray: 7.0,7.0;"/><polygon fill="#A80036" points="281.83,690.26,273.2328,685.4549,276.8509,689.8035,272.5024,693.4215,281.83,690.26" style="stroke: #A80036; stroke-width: 1.0;"/><!--link schema-model to metamodel-plugin--><path d="M136.02,646.45 C164.59,629.16 203.94,607.25 241,593 C262.44,584.75 286.42,578.04 308.67,572.79 " fill="none" id="schema-model-metamodel-plugin" style="stroke: #A80036; stroke-width: 1.0; stroke-dasharray: 7.0,7.0;"/><polygon fill="#A80036" points="313.69,571.62,304.0194,569.7545,308.819,572.7485,305.825,577.548,313.69,571.62" style="stroke: #A80036; stroke-width: 1.0;"/><!--link schema-plugin to metamodel--><path d="M155.57,445.05 C208.43,454.61 284.09,468.3 334.46,477.41 " fill="none" id="schema-plugin-metamodel" style="stroke: #A80036; stroke-width: 1.0; stroke-dasharray: 7.0,7.0;"/><polygon fill="#A80036" points="339.56,478.33,331.4122,472.7971,334.6393,477.4431,329.9932,480.6702,339.56,478.33" style="stroke: #A80036; stroke-width: 1.0;"/><!--link schema-plugin to schema.plugin-template--><path d="M155.57,430.25 C194.24,427.87 245.13,424.75 289.39,422.03 " fill="none" id="schema-plugin-schema.plugin-template" style="stroke: #A80036; stroke-width: 1.0; stroke-dasharray: 7.0,7.0;"/><polygon fill="#A80036" points="294.47,421.72,285.2362,418.2941,289.4799,422.0346,285.7395,426.2783,294.47,421.72" style="stroke: #A80036; stroke-width: 1.0;"/><!--link schema-plugin to metamodel-plugin--><path d="M131.7,460.65 C160.37,480.09 201.64,505.78 241,522 C262.39,530.81 286.45,537.83 308.81,543.24 " fill="none" id="schema-plugin-metamodel-plugin" style="stroke: #A80036; stroke-width: 1.0; stroke-dasharray: 7.0,7.0;"/><polygon fill="#A80036" points="313.85,544.44,306.0181,538.4683,308.9854,543.2845,304.1692,546.2518,313.85,544.44" style="stroke: #A80036; stroke-width: 1.0;"/><!--link service-generator to datasource.flyway-migration-template--><path d="M119.33,1001.63 C146.7,1029.54 193.19,1072.87 241,1099 C260.13,1109.46 282.02,1117.83 302.94,1124.38 " fill="none" id="service-generator-datasource.flyway-migration-template" style="stroke: #A80036; stroke-width: 1.0; stroke-dasharray: 7.0,7.0;"/><polygon fill="#A80036" points="307.96,1125.92,300.5384,1119.4454,303.182,1124.4466,298.1809,1127.0902,307.96,1125.92" style="stroke: #A80036; stroke-width: 1.0;"/><!--link service-generator to service-api.springboot2-template--><path d="M165.05,981.5 C192.62,984.04 225.14,987.04 256.69,989.95 " fill="none" id="service-generator-service-api.springboot2-template" style="stroke: #A80036; stroke-width: 1.0; stroke-dasharray: 7.0,7.0;"/><polygon fill="#A80036" points="261.74,990.41,253.1441,985.6027,256.761,989.9522,252.4115,993.5691,261.74,990.41" style="stroke: #A80036; stroke-width: 1.0;"/><!--link service-generator to metamodel-plugin--><path d="M138.39,948.33 C154.14,936.62 170.56,921.53 181,904 C253.02,783.05 143.67,694.7 241,593 C258.63,574.58 284.08,565.11 308.84,560.45 " fill="none" id="service-generator-metamodel-plugin" style="stroke: #A80036; stroke-width: 1.0; stroke-dasharray: 7.0,7.0;"/><polygon fill="#A80036" points="313.78,559.58,304.2198,557.2129,308.8568,560.453,305.6167,565.09,313.78,559.58" style="stroke: #A80036; stroke-width: 1.0;"/><!--link service-generator to datasource.schema-plugin--><path d="M165.05,964.4 C199.81,959.18 242.46,952.78 281.08,946.98 " fill="none" id="service-generator-datasource.schema-plugin" style="stroke: #A80036; stroke-width: 1.0; stroke-dasharray: 7.0,7.0;"/><polygon fill="#A80036" points="286.26,946.2,276.7655,943.582,281.3155,946.9431,277.9544,951.4932,286.26,946.2" style="stroke: #A80036; stroke-width: 1.0;"/><!--link service-generator to service-api.schema-plugin--><path d="M136.02,948.45 C164.59,931.16 203.94,909.25 241,895 C256.59,889 273.53,883.82 290.16,879.42 " fill="none" id="service-generator-service-api.schema-plugin" style="stroke: #A80036; stroke-width: 1.0; stroke-dasharray: 7.0,7.0;"/><polygon fill="#A80036" points="295.32,878.07,285.6037,876.4597,290.4804,879.3263,287.6138,884.203,295.32,878.07" style="stroke: #A80036; stroke-width: 1.0;"/><!--
@startuml
left to right direction

[arch-model] <<project type>>
[domain-model-plugin] <<project type>>
[domain-model] <<project type>>
[generator] <<project type>>
[model] <<project type>>
[plugin] <<project type>>
[project-group] <<project type>>
[schema-model] <<project type>>
[schema-plugin] <<project type>>
[service-generator] <<project type>>
[template] <<project type>>


[arch-model] - -> [model]
[domain-model-plugin] - -> [plugin]
[domain-model] - -> [model]
[model] - -> [generator]
[plugin] - -> [generator]
[project-group] - -> [model]
[schema-model] - -> [model]
[schema-plugin] - -> [plugin]
[service-generator] - -> [generator]
[template] - -> [generator]





  [arch-model] ..> [datasource.schema-plugin]
  [arch-model] ..> [service-api.schema-plugin]

  [domain-model-plugin] ..> [metamodel]
  [domain-model-plugin] ..> [common-model]
  [domain-model-plugin] ..> [domain-model-plugin.project-template]
  [domain-model-plugin] ..> [metamodel-plugin]
  [domain-model-plugin] ..> [common-model-plugin]

  [domain-model] ..> [metamodel]
  [domain-model] ..> [common-model]
  [domain-model] ..> [domain-model.project-template]
  [domain-model] ..> [metamodel-plugin]

  [generator] ..> [project.project-types]
  [generator] ..> [generator.project-template]
  [generator] ..> [project.domain-model-plugin]
  [generator] ..> [common-model-plugin]



  [project-group] ..> [project-group.project-template]

  [schema-model] ..> [metamodel]
  [schema-model] ..> [schema.document-template]
  [schema-model] ..> [metamodel-plugin]

  [schema-plugin] ..> [metamodel]
  [schema-plugin] ..> [schema.plugin-template]
  [schema-plugin] ..> [metamodel-plugin]

  [service-generator] ..> [datasource.flyway-migration-template]
  [service-generator] ..> [service-api.springboot2-template]
  [service-generator] ..> [metamodel-plugin]
  [service-generator] ..> [datasource.schema-plugin]
  [service-generator] ..> [service-api.schema-plugin]



@enduml

PlantUML version 1.2019.05(Sun Apr 21 01:45:36 JST 2019)
(GPL source distribution)
Java Runtime: OpenJDK Runtime Environment
JVM: OpenJDK 64-Bit Server VM
Java Version: 1.8.0_222-b10
Operating System: Mac OS X
OS Version: 10.15.4
Default Encoding: UTF-8
Language: en
Country: JP
--></g></svg>