<?xml version="1.0" encoding="UTF-8" standalone="no"?><svg xmlns="http://www.w3.org/2000/svg" xmlns:xlink="http://www.w3.org/1999/xlink" contentScriptType="application/ecmascript" contentStyleType="text/css" height="1245px" preserveAspectRatio="none" style="width:1009px;height:1245px;" version="1.1" viewBox="0 0 1009 1245" width="1009px" zoomAndPan="magnify"><defs><filter height="300%" id="f1h6yso2t9n4wo" width="300%" x="-1" y="-1"><feGaussianBlur result="blurOut" stdDeviation="2.0"/><feColorMatrix in="blurOut" result="blurOut2" type="matrix" values="0 0 0 0 0 0 0 0 0 0 0 0 0 0 0 0 0 0 .4 0"/><feOffset dx="4.0" dy="4.0" in="blurOut2" result="blurOut3"/><feBlend in="SourceGraphic" in2="blurOut3" mode="normal"/></filter></defs><g><!--entity arch-model--><rect fill="#FEFECE" filter="url(#f1h6yso2t9n4wo)" height="52.9766" style="stroke: #A80036; stroke-width: 1.5;" width="115" x="36" y="834.5"/><rect fill="#FEFECE" height="5" style="stroke: #A80036; stroke-width: 1.5;" width="10" x="31" y="839.5"/><rect fill="#FEFECE" height="5" style="stroke: #A80036; stroke-width: 1.5;" width="10" x="31" y="877.4766"/><text fill="#000000" font-family="sans-serif" font-size="14" font-style="italic" lengthAdjust="spacingAndGlyphs" textLength="95" x="46" y="858.0352">«project type»</text><text fill="#000000" font-family="sans-serif" font-size="14" lengthAdjust="spacingAndGlyphs" textLength="81" x="53" y="874.5234">arch-model</text><!--entity domain-model-plugin--><rect fill="#FEFECE" filter="url(#f1h6yso2t9n4wo)" height="52.9766" style="stroke: #A80036; stroke-width: 1.5;" width="175" x="6" y="532.5"/><rect fill="#FEFECE" height="5" style="stroke: #A80036; stroke-width: 1.5;" width="10" x="1" y="537.5"/><rect fill="#FEFECE" height="5" style="stroke: #A80036; stroke-width: 1.5;" width="10" x="1" y="575.4766"/><text fill="#000000" font-family="sans-serif" font-size="14" font-style="italic" lengthAdjust="spacingAndGlyphs" textLength="95" x="46" y="556.0352">«project type»</text><text fill="#000000" font-family="sans-serif" font-size="14" lengthAdjust="spacingAndGlyphs" textLength="155" x="16" y="572.5234">domain-model-plugin</text><!--entity domain-model--><rect fill="#FEFECE" filter="url(#f1h6yso2t9n4wo)" height="52.9766" style="stroke: #A80036; stroke-width: 1.5;" width="123" x="32" y="318.5"/><rect fill="#FEFECE" height="5" style="stroke: #A80036; stroke-width: 1.5;" width="10" x="27" y="323.5"/><rect fill="#FEFECE" height="5" style="stroke: #A80036; stroke-width: 1.5;" width="10" x="27" y="361.4766"/><text fill="#000000" font-family="sans-serif" font-size="14" font-style="italic" lengthAdjust="spacingAndGlyphs" textLength="95" x="46" y="342.0352">«project type»</text><text fill="#000000" font-family="sans-serif" font-size="14" lengthAdjust="spacingAndGlyphs" textLength="103" x="42" y="358.5234">domain-model</text><!--entity generator--><rect fill="#FEFECE" filter="url(#f1h6yso2t9n4wo)" height="52.9766" style="stroke: #A80036; stroke-width: 1.5;" width="115" x="596" y="266.5"/><rect fill="#FEFECE" height="5" style="stroke: #A80036; stroke-width: 1.5;" width="10" x="591" y="271.5"/><rect fill="#FEFECE" height="5" style="stroke: #A80036; stroke-width: 1.5;" width="10" x="591" y="309.4766"/><text fill="#000000" font-family="sans-serif" font-size="14" font-style="italic" lengthAdjust="spacingAndGlyphs" textLength="95" x="606" y="290.0352">«project type»</text><text fill="#000000" font-family="sans-serif" font-size="14" lengthAdjust="spacingAndGlyphs" textLength="68" x="619.5" y="306.5234">generator</text><!--entity model--><rect fill="#FEFECE" filter="url(#f1h6yso2t9n4wo)" height="52.9766" style="stroke: #A80036; stroke-width: 1.5;" width="115" x="331" y="381.5"/><rect fill="#FEFECE" height="5" style="stroke: #A80036; stroke-width: 1.5;" width="10" x="326" y="386.5"/><rect fill="#FEFECE" height="5" style="stroke: #A80036; stroke-width: 1.5;" width="10" x="326" y="424.4766"/><text fill="#000000" font-family="sans-serif" font-size="14" font-style="italic" lengthAdjust="spacingAndGlyphs" textLength="95" x="341" y="405.0352">«project type»</text><text fill="#000000" font-family="sans-serif" font-size="14" lengthAdjust="spacingAndGlyphs" textLength="43" x="367" y="421.5234">model</text><!--entity plugin--><rect fill="#FEFECE" filter="url(#f1h6yso2t9n4wo)" height="52.9766" style="stroke: #A80036; stroke-width: 1.5;" width="115" x="331" y="612.5"/><rect fill="#FEFECE" height="5" style="stroke: #A80036; stroke-width: 1.5;" width="10" x="326" y="617.5"/><rect fill="#FEFECE" height="5" style="stroke: #A80036; stroke-width: 1.5;" width="10" x="326" y="655.4766"/><text fill="#000000" font-family="sans-serif" font-size="14" font-style="italic" lengthAdjust="spacingAndGlyphs" textLength="95" x="341" y="636.0352">«project type»</text><text fill="#000000" font-family="sans-serif" font-size="14" lengthAdjust="spacingAndGlyphs" textLength="44" x="366.5" y="652.5234">plugin</text><!--entity project-group--><rect fill="#FEFECE" filter="url(#f1h6yso2t9n4wo)" height="52.9766" style="stroke: #A80036; stroke-width: 1.5;" width="118" x="34.5" y="425.5"/><rect fill="#FEFECE" height="5" style="stroke: #A80036; stroke-width: 1.5;" width="10" x="29.5" y="430.5"/><rect fill="#FEFECE" height="5" style="stroke: #A80036; stroke-width: 1.5;" width="10" x="29.5" y="468.4766"/><text fill="#000000" font-family="sans-serif" font-size="14" font-style="italic" lengthAdjust="spacingAndGlyphs" textLength="95" x="46" y="449.0352">«project type»</text><text fill="#000000" font-family="sans-serif" font-size="14" lengthAdjust="spacingAndGlyphs" textLength="98" x="44.5" y="465.5234">project-group</text><!--entity schema-model--><rect fill="#FEFECE" filter="url(#f1h6yso2t9n4wo)" height="52.9766" style="stroke: #A80036; stroke-width: 1.5;" width="123" x="32" y="230.5"/><rect fill="#FEFECE" height="5" style="stroke: #A80036; stroke-width: 1.5;" width="10" x="27" y="235.5"/><rect fill="#FEFECE" height="5" style="stroke: #A80036; stroke-width: 1.5;" width="10" x="27" y="273.4766"/><text fill="#000000" font-family="sans-serif" font-size="14" font-style="italic" lengthAdjust="spacingAndGlyphs" textLength="95" x="46" y="254.0352">«project type»</text><text fill="#000000" font-family="sans-serif" font-size="14" lengthAdjust="spacingAndGlyphs" textLength="103" x="42" y="270.5234">schema-model</text><!--entity schema-plugin--><rect fill="#FEFECE" filter="url(#f1h6yso2t9n4wo)" height="52.9766" style="stroke: #A80036; stroke-width: 1.5;" width="124" x="31.5" y="656.5"/><rect fill="#FEFECE" height="5" style="stroke: #A80036; stroke-width: 1.5;" width="10" x="26.5" y="661.5"/><rect fill="#FEFECE" height="5" style="stroke: #A80036; stroke-width: 1.5;" width="10" x="26.5" y="699.4766"/><text fill="#000000" font-family="sans-serif" font-size="14" font-style="italic" lengthAdjust="spacingAndGlyphs" textLength="95" x="46" y="680.0352">«project type»</text><text fill="#000000" font-family="sans-serif" font-size="14" lengthAdjust="spacingAndGlyphs" textLength="104" x="41.5" y="696.5234">schema-plugin</text><!--entity service-generator--><rect fill="#FEFECE" filter="url(#f1h6yso2t9n4wo)" height="52.9766" style="stroke: #A80036; stroke-width: 1.5;" width="143" x="22" y="1011.5"/><rect fill="#FEFECE" height="5" style="stroke: #A80036; stroke-width: 1.5;" width="10" x="17" y="1016.5"/><rect fill="#FEFECE" height="5" style="stroke: #A80036; stroke-width: 1.5;" width="10" x="17" y="1054.4766"/><text fill="#000000" font-family="sans-serif" font-size="14" font-style="italic" lengthAdjust="spacingAndGlyphs" textLength="95" x="46" y="1035.0352">«project type»</text><text fill="#000000" font-family="sans-serif" font-size="14" lengthAdjust="spacingAndGlyphs" textLength="123" x="32" y="1051.5234">service-generator</text><!--entity template--><rect fill="#FEFECE" filter="url(#f1h6yso2t9n4wo)" height="52.9766" style="stroke: #A80036; stroke-width: 1.5;" width="115" x="331" y="150.5"/><rect fill="#FEFECE" height="5" style="stroke: #A80036; stroke-width: 1.5;" width="10" x="326" y="155.5"/><rect fill="#FEFECE" height="5" style="stroke: #A80036; stroke-width: 1.5;" width="10" x="326" y="193.4766"/><text fill="#000000" font-family="sans-serif" font-size="14" font-style="italic" lengthAdjust="spacingAndGlyphs" textLength="95" x="341" y="174.0352">«project type»</text><text fill="#000000" font-family="sans-serif" font-size="14" lengthAdjust="spacingAndGlyphs" textLength="60" x="358.5" y="190.5234">template</text><!--entity datasource.schema-plugin--><rect fill="#FEFECE" filter="url(#f1h6yso2t9n4wo)" height="36.4883" style="stroke: #A80036; stroke-width: 1.5;" width="204" x="286.5" y="843"/><rect fill="#FEFECE" height="5" style="stroke: #A80036; stroke-width: 1.5;" width="10" x="281.5" y="848"/><rect fill="#FEFECE" height="5" style="stroke: #A80036; stroke-width: 1.5;" width="10" x="281.5" y="869.4883"/><text fill="#000000" font-family="sans-serif" font-size="14" lengthAdjust="spacingAndGlyphs" textLength="184" x="296.5" y="866.5352">datasource.schema-plugin</text><!--entity service-api.schema-plugin--><rect fill="#FEFECE" filter="url(#f1h6yso2t9n4wo)" height="36.4883" style="stroke: #A80036; stroke-width: 1.5;" width="204" x="286.5" y="914"/><rect fill="#FEFECE" height="5" style="stroke: #A80036; stroke-width: 1.5;" width="10" x="281.5" y="919"/><rect fill="#FEFECE" height="5" style="stroke: #A80036; stroke-width: 1.5;" width="10" x="281.5" y="940.4883"/><text fill="#000000" font-family="sans-serif" font-size="14" lengthAdjust="spacingAndGlyphs" textLength="184" x="296.5" y="937.5352">service-api.schema-plugin</text><!--entity metamodel--><rect fill="#FEFECE" filter="url(#f1h6yso2t9n4wo)" height="36.4883" style="stroke: #A80036; stroke-width: 1.5;" width="97" x="340" y="310"/><rect fill="#FEFECE" height="5" style="stroke: #A80036; stroke-width: 1.5;" width="10" x="335" y="315"/><rect fill="#FEFECE" height="5" style="stroke: #A80036; stroke-width: 1.5;" width="10" x="335" y="336.4883"/><text fill="#000000" font-family="sans-serif" font-size="14" lengthAdjust="spacingAndGlyphs" textLength="77" x="350" y="333.5352">metamodel</text><!--entity domain-model-plugin.project-template--><rect fill="#FEFECE" filter="url(#f1h6yso2t9n4wo)" height="36.4883" style="stroke: #A80036; stroke-width: 1.5;" width="295" x="241" y="541"/><rect fill="#FEFECE" height="5" style="stroke: #A80036; stroke-width: 1.5;" width="10" x="236" y="546"/><rect fill="#FEFECE" height="5" style="stroke: #A80036; stroke-width: 1.5;" width="10" x="236" y="567.4883"/><text fill="#000000" font-family="sans-serif" font-size="14" lengthAdjust="spacingAndGlyphs" textLength="275" x="251" y="564.5352">domain-model-plugin.project-template</text><!--entity domain-model.project-template--><rect fill="#FEFECE" filter="url(#f1h6yso2t9n4wo)" height="36.4883" style="stroke: #A80036; stroke-width: 1.5;" width="243" x="267" y="79"/><rect fill="#FEFECE" height="5" style="stroke: #A80036; stroke-width: 1.5;" width="10" x="262" y="84"/><rect fill="#FEFECE" height="5" style="stroke: #A80036; stroke-width: 1.5;" width="10" x="262" y="105.4883"/><text fill="#000000" font-family="sans-serif" font-size="14" lengthAdjust="spacingAndGlyphs" textLength="223" x="277" y="102.5352">domain-model.project-template</text><!--entity project.project-types--><rect fill="#FEFECE" filter="url(#f1h6yso2t9n4wo)" height="36.4883" style="stroke: #A80036; stroke-width: 1.5;" width="164" x="802.5" y="311"/><rect fill="#FEFECE" height="5" style="stroke: #A80036; stroke-width: 1.5;" width="10" x="797.5" y="316"/><rect fill="#FEFECE" height="5" style="stroke: #A80036; stroke-width: 1.5;" width="10" x="797.5" y="337.4883"/><text fill="#000000" font-family="sans-serif" font-size="14" lengthAdjust="spacingAndGlyphs" textLength="144" x="812.5" y="334.5352">project.project-types</text><!--entity project.domain-model--><rect fill="#FEFECE" filter="url(#f1h6yso2t9n4wo)" height="36.4883" style="stroke: #A80036; stroke-width: 1.5;" width="175" x="797" y="382"/><rect fill="#FEFECE" height="5" style="stroke: #A80036; stroke-width: 1.5;" width="10" x="792" y="387"/><rect fill="#FEFECE" height="5" style="stroke: #A80036; stroke-width: 1.5;" width="10" x="792" y="408.4883"/><text fill="#000000" font-family="sans-serif" font-size="14" lengthAdjust="spacingAndGlyphs" textLength="155" x="807" y="405.5352">project.domain-model</text><!--entity common-model--><rect fill="#FEFECE" filter="url(#f1h6yso2t9n4wo)" height="36.4883" style="stroke: #A80036; stroke-width: 1.5;" width="131" x="819" y="453"/><rect fill="#FEFECE" height="5" style="stroke: #A80036; stroke-width: 1.5;" width="10" x="814" y="458"/><rect fill="#FEFECE" height="5" style="stroke: #A80036; stroke-width: 1.5;" width="10" x="814" y="479.4883"/><text fill="#000000" font-family="sans-serif" font-size="14" lengthAdjust="spacingAndGlyphs" textLength="111" x="829" y="476.5352">common-model</text><!--entity generator.project-template--><rect fill="#FEFECE" filter="url(#f1h6yso2t9n4wo)" height="36.4883" style="stroke: #A80036; stroke-width: 1.5;" width="208" x="780.5" y="98"/><rect fill="#FEFECE" height="5" style="stroke: #A80036; stroke-width: 1.5;" width="10" x="775.5" y="103"/><rect fill="#FEFECE" height="5" style="stroke: #A80036; stroke-width: 1.5;" width="10" x="775.5" y="124.4883"/><text fill="#000000" font-family="sans-serif" font-size="14" lengthAdjust="spacingAndGlyphs" textLength="188" x="790.5" y="121.5352">generator.project-template</text><!--entity metamodel-plugin--><rect fill="#FEFECE" filter="url(#f1h6yso2t9n4wo)" height="36.4883" style="stroke: #A80036; stroke-width: 1.5;" width="149" x="810" y="573"/><rect fill="#FEFECE" height="5" style="stroke: #A80036; stroke-width: 1.5;" width="10" x="805" y="578"/><rect fill="#FEFECE" height="5" style="stroke: #A80036; stroke-width: 1.5;" width="10" x="805" y="599.4883"/><text fill="#000000" font-family="sans-serif" font-size="14" lengthAdjust="spacingAndGlyphs" textLength="129" x="820" y="596.5352">metamodel-plugin</text><!--entity project.domain-model-plugin--><rect fill="#FEFECE" filter="url(#f1h6yso2t9n4wo)" height="36.4883" style="stroke: #A80036; stroke-width: 1.5;" width="227" x="771" y="169"/><rect fill="#FEFECE" height="5" style="stroke: #A80036; stroke-width: 1.5;" width="10" x="766" y="174"/><rect fill="#FEFECE" height="5" style="stroke: #A80036; stroke-width: 1.5;" width="10" x="766" y="195.4883"/><text fill="#000000" font-family="sans-serif" font-size="14" lengthAdjust="spacingAndGlyphs" textLength="207" x="781" y="192.5352">project.domain-model-plugin</text><!--entity common-model-plugin--><rect fill="#FEFECE" filter="url(#f1h6yso2t9n4wo)" height="36.4883" style="stroke: #A80036; stroke-width: 1.5;" width="183" x="793" y="240"/><rect fill="#FEFECE" height="5" style="stroke: #A80036; stroke-width: 1.5;" width="10" x="788" y="245"/><rect fill="#FEFECE" height="5" style="stroke: #A80036; stroke-width: 1.5;" width="10" x="788" y="266.4883"/><text fill="#000000" font-family="sans-serif" font-size="14" lengthAdjust="spacingAndGlyphs" textLength="163" x="803" y="263.5352">common-model-plugin</text><!--entity project-group.project-template--><rect fill="#FEFECE" filter="url(#f1h6yso2t9n4wo)" height="36.4883" style="stroke: #A80036; stroke-width: 1.5;" width="238" x="269.5" y="470"/><rect fill="#FEFECE" height="5" style="stroke: #A80036; stroke-width: 1.5;" width="10" x="264.5" y="475"/><rect fill="#FEFECE" height="5" style="stroke: #A80036; stroke-width: 1.5;" width="10" x="264.5" y="496.4883"/><text fill="#000000" font-family="sans-serif" font-size="14" lengthAdjust="spacingAndGlyphs" textLength="218" x="279.5" y="493.5352">project-group.project-template</text><!--entity schema.document-template--><rect fill="#FEFECE" filter="url(#f1h6yso2t9n4wo)" height="36.4883" style="stroke: #A80036; stroke-width: 1.5;" width="213" x="282" y="8"/><rect fill="#FEFECE" height="5" style="stroke: #A80036; stroke-width: 1.5;" width="10" x="277" y="13"/><rect fill="#FEFECE" height="5" style="stroke: #A80036; stroke-width: 1.5;" width="10" x="277" y="34.4883"/><text fill="#000000" font-family="sans-serif" font-size="14" lengthAdjust="spacingAndGlyphs" textLength="193" x="292" y="31.5352">schema.document-template</text><!--entity schema.plugin-template--><rect fill="#FEFECE" filter="url(#f1h6yso2t9n4wo)" height="36.4883" style="stroke: #A80036; stroke-width: 1.5;" width="188" x="294.5" y="701"/><rect fill="#FEFECE" height="5" style="stroke: #A80036; stroke-width: 1.5;" width="10" x="289.5" y="706"/><rect fill="#FEFECE" height="5" style="stroke: #A80036; stroke-width: 1.5;" width="10" x="289.5" y="727.4883"/><text fill="#000000" font-family="sans-serif" font-size="14" lengthAdjust="spacingAndGlyphs" textLength="168" x="304.5" y="724.5352">schema.plugin-template</text><!--entity datasource.flyway-migration-template--><rect fill="#FEFECE" filter="url(#f1h6yso2t9n4wo)" height="36.4883" style="stroke: #A80036; stroke-width: 1.5;" width="285" x="246" y="1198"/><rect fill="#FEFECE" height="5" style="stroke: #A80036; stroke-width: 1.5;" width="10" x="241" y="1203"/><rect fill="#FEFECE" height="5" style="stroke: #A80036; stroke-width: 1.5;" width="10" x="241" y="1224.4883"/><text fill="#000000" font-family="sans-serif" font-size="14" lengthAdjust="spacingAndGlyphs" textLength="265" x="256" y="1221.5352">datasource.flyway-migration-template</text><!--entity service-api.springboot2-template--><rect fill="#FEFECE" filter="url(#f1h6yso2t9n4wo)" height="36.4883" style="stroke: #A80036; stroke-width: 1.5;" width="253" x="262" y="1127"/><rect fill="#FEFECE" height="5" style="stroke: #A80036; stroke-width: 1.5;" width="10" x="257" y="1132"/><rect fill="#FEFECE" height="5" style="stroke: #A80036; stroke-width: 1.5;" width="10" x="257" y="1153.4883"/><text fill="#000000" font-family="sans-serif" font-size="14" lengthAdjust="spacingAndGlyphs" textLength="233" x="272" y="1150.5352">service-api.springboot2-template</text><!--link arch-model to model--><path d="M115.82,834.39 C135.56,808.45 164.31,767.14 181,727 C229.03,611.49 156.01,543.79 241,452 C262.66,428.61 296.22,417.48 325.76,412.25 " fill="none" id="arch-model-model" style="stroke: #A80036; stroke-width: 1.0;"/><polygon fill="#A80036" points="330.85,411.41,321.3183,408.9306,325.9169,412.225,322.6224,416.8236,330.85,411.41" style="stroke: #A80036; stroke-width: 1.0;"/><!--link domain-model-plugin to plugin--><path d="M181.22,582.68 C227.6,595.34 283.62,610.64 325.57,622.09 " fill="none" id="domain-model-plugin-plugin" style="stroke: #A80036; stroke-width: 1.0;"/><polygon fill="#A80036" points="330.62,623.47,322.9865,617.2467,325.7955,622.1568,320.8854,624.9659,330.62,623.47" style="stroke: #A80036; stroke-width: 1.0;"/><!--link domain-model to model--><path d="M155.21,358.05 C205.12,368.79 275.55,383.93 325.75,394.72 " fill="none" id="domain-model-model" style="stroke: #A80036; stroke-width: 1.0;"/><polygon fill="#A80036" points="330.84,395.82,322.8733,390.0294,325.9502,394.7763,321.2033,397.8531,330.84,395.82" style="stroke: #A80036; stroke-width: 1.0;"/><!--link model to generator--><path d="M446.32,394.02 C473.96,386.35 507.33,375.79 536,363 C561.35,351.69 588.01,335.99 609.42,322.33 " fill="none" id="model-generator" style="stroke: #A80036; stroke-width: 1.0;"/><polygon fill="#A80036" points="613.63,319.62,603.8977,321.1304,609.4264,322.3274,608.2295,327.8562,613.63,319.62" style="stroke: #A80036; stroke-width: 1.0;"/><!--link plugin to generator--><path d="M446.19,633.95 C476.15,628.58 511.65,617.56 536,595 C616,520.89 641.65,385.62 649.39,324.48 " fill="none" id="plugin-generator" style="stroke: #A80036; stroke-width: 1.0;"/><polygon fill="#A80036" points="650,319.5,644.9265,327.9415,649.3868,324.4623,652.8661,328.9226,650,319.5" style="stroke: #A80036; stroke-width: 1.0;"/><!--link project-group to model--><path d="M152.74,443.25 C202.76,435.74 274.66,424.95 325.69,417.28 " fill="none" id="project-group-model" style="stroke: #A80036; stroke-width: 1.0;"/><polygon fill="#A80036" points="330.87,416.5,321.3755,413.882,325.9255,417.2431,322.5644,421.7932,330.87,416.5" style="stroke: #A80036; stroke-width: 1.0;"/><!--link schema-model to model--><path d="M153.3,283.56 C162.89,288.83 172.46,294.69 181,301 C211.84,323.78 208.31,342.96 241,363 C266.73,378.77 298.43,389.4 325.75,396.35 " fill="none" id="schema-model-model" style="stroke: #A80036; stroke-width: 1.0;"/><polygon fill="#A80036" points="330.79,397.61,323.0121,391.5681,325.9359,396.4108,321.0933,399.3346,330.79,397.61" style="stroke: #A80036; stroke-width: 1.0;"/><!--link schema-plugin to plugin--><path d="M155.57,673.83 C205.51,666.33 275.81,655.77 325.89,648.25 " fill="none" id="schema-plugin-plugin" style="stroke: #A80036; stroke-width: 1.0;"/><polygon fill="#A80036" points="330.98,647.49,321.4855,644.872,326.0355,648.2331,322.6744,652.7832,330.98,647.49" style="stroke: #A80036; stroke-width: 1.0;"/><!--link service-generator to generator--><path d="M165.3,1036.48 C276.52,1032.56 484.82,1018.48 536,968 C628.81,876.45 648.1,446.64 651.72,325.09 " fill="none" id="service-generator-generator" style="stroke: #A80036; stroke-width: 1.0;"/><polygon fill="#A80036" points="651.88,319.88,647.6246,328.7621,651.7372,324.878,655.6213,328.9906,651.88,319.88" style="stroke: #A80036; stroke-width: 1.0;"/><!--link template to generator--><path d="M446.22,195.88 C473.68,205.54 506.93,217.98 536,231 C557.97,240.84 581.52,253.04 601.67,264.02 " fill="none" id="template-generator" style="stroke: #A80036; stroke-width: 1.0;"/><polygon fill="#A80036" points="606.18,266.48,600.2051,258.6506,601.7938,264.0797,596.3646,265.6685,606.18,266.48" style="stroke: #A80036; stroke-width: 1.0;"/><!--link arch-model to datasource.schema-plugin--><path d="M151.34,861 C188.2,861 237.35,861 281.27,861 " fill="none" id="arch-model-datasource.schema-plugin" style="stroke: #A80036; stroke-width: 1.0; stroke-dasharray: 7.0,7.0;"/><polygon fill="#A80036" points="286.33,861,277.33,857,281.33,861,277.33,865,286.33,861" style="stroke: #A80036; stroke-width: 1.0;"/><!--link arch-model to service-api.schema-plugin--><path d="M151.18,875.02 C178.34,881.71 211.35,889.81 241,897 C262.18,902.13 285.09,907.63 306.36,912.71 " fill="none" id="arch-model-service-api.schema-plugin" style="stroke: #A80036; stroke-width: 1.0; stroke-dasharray: 7.0,7.0;"/><polygon fill="#A80036" points="311.44,913.93,303.6081,907.9583,306.5754,912.7745,301.7592,915.7418,311.44,913.93" style="stroke: #A80036; stroke-width: 1.0;"/><!--link domain-model-plugin to metamodel--><path d="M139.98,532.44 C154.44,522.4 169.61,509.97 181,496 C221.72,446.05 191.4,405.15 241,364 C267.1,342.34 304.29,333.38 334.66,329.82 " fill="none" id="domain-model-plugin-metamodel" style="stroke: #A80036; stroke-width: 1.0; stroke-dasharray: 7.0,7.0;"/><polygon fill="#A80036" points="339.86,329.25,330.479,326.2506,334.8895,329.7928,331.3474,334.2033,339.86,329.25" style="stroke: #A80036; stroke-width: 1.0;"/><!--link domain-model-plugin to domain-model-plugin.project-template--><path d="M181.22,559 C198.42,559 216.94,559 235.59,559 " fill="none" id="domain-model-plugin-domain-model-plugin.project-template" style="stroke: #A80036; stroke-width: 1.0; stroke-dasharray: 7.0,7.0;"/><polygon fill="#A80036" points="240.85,559,231.85,555,235.85,559,231.85,563,240.85,559" style="stroke: #A80036; stroke-width: 1.0;"/><!--link domain-model to metamodel--><path d="M155.21,341.48 C208.2,338.4 284.32,333.99 334.79,331.06 " fill="none" id="domain-model-metamodel" style="stroke: #A80036; stroke-width: 1.0; stroke-dasharray: 7.0,7.0;"/><polygon fill="#A80036" points="339.9,330.76,330.6865,327.28,334.9081,331.0452,331.1429,335.2669,339.9,330.76" style="stroke: #A80036; stroke-width: 1.0;"/><!--link domain-model to domain-model.project-template--><path d="M155.02,321.8 C164.63,316.1 173.77,309.22 181,301 C233.38,241.48 182.15,186.13 241,133 C247.81,126.85 255.49,121.72 263.69,117.43 " fill="none" id="domain-model-domain-model.project-template" style="stroke: #A80036; stroke-width: 1.0; stroke-dasharray: 7.0,7.0;"/><polygon fill="#A80036" points="268.29,115.13,258.4502,115.5521,263.8122,117.3547,262.0096,122.7166,268.29,115.13" style="stroke: #A80036; stroke-width: 1.0;"/><!--link generator to project.project-types--><path d="M711.11,301.9 C737.15,305.99 768.61,310.94 797.5,315.48 " fill="none" id="generator-project.project-types" style="stroke: #A80036; stroke-width: 1.0; stroke-dasharray: 7.0,7.0;"/><polygon fill="#A80036" points="802.48,316.26,794.2045,310.92,797.5398,315.489,792.9708,318.8243,802.48,316.26" style="stroke: #A80036; stroke-width: 1.0;"/><!--link generator to project.domain-model--><path d="M692.85,319.57 C714.98,334.07 743.75,351.55 771,364 C784.32,370.09 798.97,375.58 813.16,380.33 " fill="none" id="generator-project.domain-model" style="stroke: #A80036; stroke-width: 1.0; stroke-dasharray: 7.0,7.0;"/><polygon fill="#A80036" points="817.96,381.92,810.6748,375.2924,813.2137,380.3474,808.1587,382.8864,817.96,381.92" style="stroke: #A80036; stroke-width: 1.0;"/><!--link generator to common-model--><path d="M684.71,319.64 C693.57,328.04 703.02,337.58 711,347 C741.61,383.11 733.06,406.69 771,435 C783.63,444.42 798.8,451.43 813.86,456.62 " fill="none" id="generator-common-model" style="stroke: #A80036; stroke-width: 1.0; stroke-dasharray: 7.0,7.0;"/><polygon fill="#A80036" points="818.96,458.32,811.6748,451.6924,814.2137,456.7474,809.1587,459.2864,818.96,458.32" style="stroke: #A80036; stroke-width: 1.0;"/><!--link generator to generator.project-template--><path d="M669.71,266.22 C689.2,234.27 725.9,181.37 771,151 C779.83,145.06 789.71,140.08 799.86,135.93 " fill="none" id="generator-generator.project-template" style="stroke: #A80036; stroke-width: 1.0; stroke-dasharray: 7.0,7.0;"/><polygon fill="#A80036" points="804.54,134.08,794.6992,133.6825,799.8927,135.9246,797.6506,141.1182,804.54,134.08" style="stroke: #A80036; stroke-width: 1.0;"/><!--link generator to metamodel-plugin--><path d="M687.36,319.65 C695.89,327.76 704.5,337.15 711,347 C752.84,410.38 725.4,446.27 771,507 C790.84,533.42 821.22,555.42 845.4,570.26 " fill="none" id="generator-metamodel-plugin" style="stroke: #A80036; stroke-width: 1.0; stroke-dasharray: 7.0,7.0;"/><polygon fill="#A80036" points="849.84,572.95,844.2003,564.8757,845.5588,570.367,840.0675,571.7256,849.84,572.95" style="stroke: #A80036; stroke-width: 1.0;"/><!--link generator to project.domain-model-plugin--><path d="M692.81,266.35 C714.93,251.82 743.7,234.34 771,222 C783.62,216.3 797.43,211.16 810.92,206.7 " fill="none" id="generator-project.domain-model-plugin" style="stroke: #A80036; stroke-width: 1.0; stroke-dasharray: 7.0,7.0;"/><polygon fill="#A80036" points="815.87,205.08,806.0722,204.0782,811.1181,206.6354,808.5609,211.6813,815.87,205.08" style="stroke: #A80036; stroke-width: 1.0;"/><!--link generator to common-model-plugin--><path d="M711.11,284.35 C734.2,280.82 761.56,276.64 787.6,272.66 " fill="none" id="generator-common-model-plugin" style="stroke: #A80036; stroke-width: 1.0; stroke-dasharray: 7.0,7.0;"/><polygon fill="#A80036" points="792.79,271.86,783.2955,269.242,787.8455,272.6031,784.4844,277.1532,792.79,271.86" style="stroke: #A80036; stroke-width: 1.0;"/><!--link project-group to project-group.project-template--><path d="M152.74,459.16 C184.68,463.08 225.55,468.1 264.21,472.85 " fill="none" id="project-group-project-group.project-template" style="stroke: #A80036; stroke-width: 1.0; stroke-dasharray: 7.0,7.0;"/><polygon fill="#A80036" points="269.4,473.49,260.9585,468.4165,264.4377,472.8768,259.9774,476.3561,269.4,473.49" style="stroke: #A80036; stroke-width: 1.0;"/><!--link schema-model to metamodel--><path d="M155.21,271.71 C208.2,284.55 284.32,303 334.79,315.23 " fill="none" id="schema-model-metamodel" style="stroke: #A80036; stroke-width: 1.0; stroke-dasharray: 7.0,7.0;"/><polygon fill="#A80036" points="339.9,316.47,332.1054,310.4497,335.0426,315.2842,330.2081,318.2215,339.9,316.47" style="stroke: #A80036; stroke-width: 1.0;"/><!--link schema-model to schema.document-template--><path d="M106.73,230.45 C127.81,187.76 175.16,104.3 241,61 C251.9,53.83 264.11,48.13 276.71,43.59 " fill="none" id="schema-model-schema.document-template" style="stroke: #A80036; stroke-width: 1.0; stroke-dasharray: 7.0,7.0;"/><polygon fill="#A80036" points="281.75,41.85,271.9357,41.0252,277.0269,43.4909,274.5612,48.5821,281.75,41.85" style="stroke: #A80036; stroke-width: 1.0;"/><!--link schema-model to metamodel-plugin--><path d="M155.3,249.77 C243.29,241.91 409.42,236.98 536,292 C568.46,306.11 743.73,484.44 771,507 C798.05,529.38 830.28,553.17 853.29,569.69 " fill="none" id="schema-model-metamodel-plugin" style="stroke: #A80036; stroke-width: 1.0; stroke-dasharray: 7.0,7.0;"/><polygon fill="#A80036" points="857.47,572.69,852.4939,564.1907,853.4091,569.773,847.8267,570.6881,857.47,572.69" style="stroke: #A80036; stroke-width: 1.0;"/><!--link schema-plugin to metamodel--><path d="M132.08,656.42 C149.35,642.38 168.69,623.76 181,603 C236.85,508.8 163.37,441.25 241,364 C265.4,339.73 303.34,330.89 334.5,328.03 " fill="none" id="schema-plugin-metamodel" style="stroke: #A80036; stroke-width: 1.0; stroke-dasharray: 7.0,7.0;"/><polygon fill="#A80036" points="339.84,327.59,330.5397,324.349,334.8572,328.004,331.2021,332.3215,339.84,327.59" style="stroke: #A80036; stroke-width: 1.0;"/><!--link schema-plugin to schema.plugin-template--><path d="M155.57,690.5 C194.24,695.26 245.13,701.51 289.39,706.94 " fill="none" id="schema-plugin-schema.plugin-template" style="stroke: #A80036; stroke-width: 1.0; stroke-dasharray: 7.0,7.0;"/><polygon fill="#A80036" points="294.47,707.57,286.0285,702.4965,289.5077,706.9568,285.0474,710.4361,294.47,707.57" style="stroke: #A80036; stroke-width: 1.0;"/><!--link schema-plugin to metamodel-plugin--><path d="M135.52,709.51 C163.89,726.21 203.18,746.21 241,755 C368.71,784.69 408.06,783.67 536,755 C660.35,727.13 792.61,649.54 851.74,611.95 " fill="none" id="schema-plugin-metamodel-plugin" style="stroke: #A80036; stroke-width: 1.0; stroke-dasharray: 7.0,7.0;"/><polygon fill="#A80036" points="856.21,609.09,846.4741,610.5771,851.9999,611.7873,850.7897,617.3132,856.21,609.09" style="stroke: #A80036; stroke-width: 1.0;"/><!--link service-generator to datasource.flyway-migration-template--><path d="M114.18,1064.55 C139.74,1097.08 187.47,1151.48 241,1181 C252.12,1187.13 264.29,1192.2 276.71,1196.38 " fill="none" id="service-generator-datasource.flyway-migration-template" style="stroke: #A80036; stroke-width: 1.0; stroke-dasharray: 7.0,7.0;"/><polygon fill="#A80036" points="281.67,1198,274.343,1191.4186,276.9139,1196.4575,271.875,1199.0283,281.67,1198" style="stroke: #A80036; stroke-width: 1.0;"/><!--link service-generator to service-api.springboot2-template--><path d="M153.47,1064.58 C179.98,1076.11 211.8,1089.37 241,1100 C266.08,1109.13 294,1118.02 318.68,1125.45 " fill="none" id="service-generator-service-api.springboot2-template" style="stroke: #A80036; stroke-width: 1.0; stroke-dasharray: 7.0,7.0;"/><polygon fill="#A80036" points="323.57,1126.91,316.1077,1120.4823,318.7828,1125.4667,313.7985,1128.1418,323.57,1126.91" style="stroke: #A80036; stroke-width: 1.0;"/><!--link service-generator to metamodel-plugin--><path d="M165.3,1056.74 C256.25,1076.83 416.6,1098.57 536,1040 C726.51,946.54 842.34,692.76 874.38,614.38 " fill="none" id="service-generator-metamodel-plugin" style="stroke: #A80036; stroke-width: 1.0; stroke-dasharray: 7.0,7.0;"/><polygon fill="#A80036" points="876.37,609.47,869.27,616.2956,874.4835,614.1005,876.6787,619.314,876.37,609.47" style="stroke: #A80036; stroke-width: 1.0;"/><!--link service-generator to datasource.schema-plugin--><path d="M114.74,1011.32 C140.53,979.26 188.13,926.13 241,897 C253.57,890.07 267.47,884.46 281.56,879.92 " fill="none" id="service-generator-datasource.schema-plugin" style="stroke: #A80036; stroke-width: 1.0; stroke-dasharray: 7.0,7.0;"/><polygon fill="#A80036" points="286.35,878.42,276.5647,877.3032,281.5801,879.9195,278.9639,884.935,286.35,878.42" style="stroke: #A80036; stroke-width: 1.0;"/><!--link service-generator to service-api.schema-plugin--><path d="M154.57,1011.45 C180.87,1000.23 212.23,987.38 241,977 C266.22,967.9 294.29,958.99 319.06,951.53 " fill="none" id="service-generator-service-api.schema-plugin" style="stroke: #A80036; stroke-width: 1.0; stroke-dasharray: 7.0,7.0;"/><polygon fill="#A80036" points="323.96,950.06,314.1885,948.8282,319.1728,951.5033,316.4977,956.4877,323.96,950.06" style="stroke: #A80036; stroke-width: 1.0;"/><!--
@startuml
left to right direction

[arch-model] <<project type>>
[domain-model-plugin] <<project type>>
[domain-model] <<project type>>
[generator] <<project type>>
[model] <<project type>>
[plugin] <<project type>>
[project-group] <<project type>>
[schema-model] <<project type>>
[schema-plugin] <<project type>>
[service-generator] <<project type>>
[template] <<project type>>


[arch-model] - -> [model]
[domain-model-plugin] - -> [plugin]
[domain-model] - -> [model]
[model] - -> [generator]
[plugin] - -> [generator]
[project-group] - -> [model]
[schema-model] - -> [model]
[schema-plugin] - -> [plugin]
[service-generator] - -> [generator]
[template] - -> [generator]





  [arch-model] ..> [datasource.schema-plugin]
  [arch-model] ..> [service-api.schema-plugin]

  [domain-model-plugin] ..> [metamodel]
  [domain-model-plugin] ..> [domain-model-plugin.project-template]

  [domain-model] ..> [metamodel]
  [domain-model] ..> [domain-model.project-template]

  [generator] ..> [project.project-types]
  [generator] ..> [project.domain-model]
  [generator] ..> [common-model]
  [generator] ..> [generator.project-template]
  [generator] ..> [metamodel-plugin]
  [generator] ..> [project.domain-model-plugin]
  [generator] ..> [common-model-plugin]



  [project-group] ..> [project-group.project-template]

  [schema-model] ..> [metamodel]
  [schema-model] ..> [schema.document-template]
  [schema-model] ..> [metamodel-plugin]

  [schema-plugin] ..> [metamodel]
  [schema-plugin] ..> [schema.plugin-template]
  [schema-plugin] ..> [metamodel-plugin]

  [service-generator] ..> [datasource.flyway-migration-template]
  [service-generator] ..> [service-api.springboot2-template]
  [service-generator] ..> [metamodel-plugin]
  [service-generator] ..> [datasource.schema-plugin]
  [service-generator] ..> [service-api.schema-plugin]



@enduml

PlantUML version 1.2019.05(Sun Apr 21 01:45:36 JST 2019)
(GPL source distribution)
Java Runtime: OpenJDK Runtime Environment
JVM: OpenJDK 64-Bit Server VM
Java Version: 1.8.0_222-b10
Operating System: Mac OS X
OS Version: 10.15.4
Default Encoding: UTF-8
Language: en
Country: JP
--></g></svg>