<?xml version="1.0" encoding="UTF-8" standalone="no"?><svg xmlns="http://www.w3.org/2000/svg" xmlns:xlink="http://www.w3.org/1999/xlink" contentScriptType="application/ecmascript" contentStyleType="text/css" height="1174px" preserveAspectRatio="none" style="width:969px;height:1174px;" version="1.1" viewBox="0 0 969 1174" width="969px" zoomAndPan="magnify"><defs><filter height="300%" id="f154n5vnq2jbso" width="300%" x="-1" y="-1"><feGaussianBlur result="blurOut" stdDeviation="2.0"/><feColorMatrix in="blurOut" result="blurOut2" type="matrix" values="0 0 0 0 0 0 0 0 0 0 0 0 0 0 0 0 0 0 .4 0"/><feOffset dx="4.0" dy="4.0" in="blurOut2" result="blurOut3"/><feBlend in="SourceGraphic" in2="blurOut3" mode="normal"/></filter></defs><g><!--entity arch-model--><rect fill="#FEFECE" filter="url(#f154n5vnq2jbso)" height="52.5938" style="stroke: #A80036; stroke-width: 1.5;" width="120" x="29" y="674.5"/><rect fill="#FEFECE" height="5" style="stroke: #A80036; stroke-width: 1.5;" width="10" x="24" y="679.5"/><rect fill="#FEFECE" height="5" style="stroke: #A80036; stroke-width: 1.5;" width="10" x="24" y="717.0938"/><text fill="#000000" font-family="sans-serif" font-size="14" font-style="italic" lengthAdjust="spacingAndGlyphs" textLength="100" x="39" y="697.4951">«project type»</text><text fill="#000000" font-family="sans-serif" font-size="14" lengthAdjust="spacingAndGlyphs" textLength="78" x="50" y="713.792">arch-model</text><!--entity domain-model-plugin--><rect fill="#FEFECE" filter="url(#f154n5vnq2jbso)" height="52.5938" style="stroke: #A80036; stroke-width: 1.5;" width="166" x="6" y="75.5"/><rect fill="#FEFECE" height="5" style="stroke: #A80036; stroke-width: 1.5;" width="10" x="1" y="80.5"/><rect fill="#FEFECE" height="5" style="stroke: #A80036; stroke-width: 1.5;" width="10" x="1" y="118.0938"/><text fill="#000000" font-family="sans-serif" font-size="14" font-style="italic" lengthAdjust="spacingAndGlyphs" textLength="100" x="39" y="98.4951">«project type»</text><text fill="#000000" font-family="sans-serif" font-size="14" lengthAdjust="spacingAndGlyphs" textLength="146" x="16" y="114.792">domain-model-plugin</text><!--entity domain-model--><rect fill="#FEFECE" filter="url(#f154n5vnq2jbso)" height="52.5938" style="stroke: #A80036; stroke-width: 1.5;" width="120" x="29" y="416.5"/><rect fill="#FEFECE" height="5" style="stroke: #A80036; stroke-width: 1.5;" width="10" x="24" y="421.5"/><rect fill="#FEFECE" height="5" style="stroke: #A80036; stroke-width: 1.5;" width="10" x="24" y="459.0938"/><text fill="#000000" font-family="sans-serif" font-size="14" font-style="italic" lengthAdjust="spacingAndGlyphs" textLength="100" x="39" y="439.4951">«project type»</text><text fill="#000000" font-family="sans-serif" font-size="14" lengthAdjust="spacingAndGlyphs" textLength="99" x="39.5" y="455.792">domain-model</text><!--entity generator--><rect fill="#FEFECE" filter="url(#f154n5vnq2jbso)" height="52.5938" style="stroke: #A80036; stroke-width: 1.5;" width="120" x="569" y="705.5"/><rect fill="#FEFECE" height="5" style="stroke: #A80036; stroke-width: 1.5;" width="10" x="564" y="710.5"/><rect fill="#FEFECE" height="5" style="stroke: #A80036; stroke-width: 1.5;" width="10" x="564" y="748.0938"/><text fill="#000000" font-family="sans-serif" font-size="14" font-style="italic" lengthAdjust="spacingAndGlyphs" textLength="100" x="579" y="728.4951">«project type»</text><text fill="#000000" font-family="sans-serif" font-size="14" lengthAdjust="spacingAndGlyphs" textLength="68" x="595" y="744.792">generator</text><!--entity model--><rect fill="#FEFECE" filter="url(#f154n5vnq2jbso)" height="52.5938" style="stroke: #A80036; stroke-width: 1.5;" width="120" x="310.5" y="594.5"/><rect fill="#FEFECE" height="5" style="stroke: #A80036; stroke-width: 1.5;" width="10" x="305.5" y="599.5"/><rect fill="#FEFECE" height="5" style="stroke: #A80036; stroke-width: 1.5;" width="10" x="305.5" y="637.0938"/><text fill="#000000" font-family="sans-serif" font-size="14" font-style="italic" lengthAdjust="spacingAndGlyphs" textLength="100" x="320.5" y="617.4951">«project type»</text><text fill="#000000" font-family="sans-serif" font-size="14" lengthAdjust="spacingAndGlyphs" textLength="43" x="349" y="633.792">model</text><!--entity plugin--><rect fill="#FEFECE" filter="url(#f154n5vnq2jbso)" height="52.5938" style="stroke: #A80036; stroke-width: 1.5;" width="120" x="310.5" y="79.5"/><rect fill="#FEFECE" height="5" style="stroke: #A80036; stroke-width: 1.5;" width="10" x="305.5" y="84.5"/><rect fill="#FEFECE" height="5" style="stroke: #A80036; stroke-width: 1.5;" width="10" x="305.5" y="122.0938"/><text fill="#000000" font-family="sans-serif" font-size="14" font-style="italic" lengthAdjust="spacingAndGlyphs" textLength="100" x="320.5" y="102.4951">«project type»</text><text fill="#000000" font-family="sans-serif" font-size="14" lengthAdjust="spacingAndGlyphs" textLength="42" x="349.5" y="118.792">plugin</text><!--entity project-group--><rect fill="#FEFECE" filter="url(#f154n5vnq2jbso)" height="52.5938" style="stroke: #A80036; stroke-width: 1.5;" width="120" x="29" y="984.5"/><rect fill="#FEFECE" height="5" style="stroke: #A80036; stroke-width: 1.5;" width="10" x="24" y="989.5"/><rect fill="#FEFECE" height="5" style="stroke: #A80036; stroke-width: 1.5;" width="10" x="24" y="1027.0938"/><text fill="#000000" font-family="sans-serif" font-size="14" font-style="italic" lengthAdjust="spacingAndGlyphs" textLength="100" x="39" y="1007.4951">«project type»</text><text fill="#000000" font-family="sans-serif" font-size="14" lengthAdjust="spacingAndGlyphs" textLength="94" x="42" y="1023.792">project-group</text><!--entity schema-model--><rect fill="#FEFECE" filter="url(#f154n5vnq2jbso)" height="52.5938" style="stroke: #A80036; stroke-width: 1.5;" width="123" x="27.5" y="276.5"/><rect fill="#FEFECE" height="5" style="stroke: #A80036; stroke-width: 1.5;" width="10" x="22.5" y="281.5"/><rect fill="#FEFECE" height="5" style="stroke: #A80036; stroke-width: 1.5;" width="10" x="22.5" y="319.0938"/><text fill="#000000" font-family="sans-serif" font-size="14" font-style="italic" lengthAdjust="spacingAndGlyphs" textLength="100" x="39" y="299.4951">«project type»</text><text fill="#000000" font-family="sans-serif" font-size="14" lengthAdjust="spacingAndGlyphs" textLength="103" x="37.5" y="315.792">schema-model</text><!--entity schema-plugin--><rect fill="#FEFECE" filter="url(#f154n5vnq2jbso)" height="52.5938" style="stroke: #A80036; stroke-width: 1.5;" width="122" x="28" y="163.5"/><rect fill="#FEFECE" height="5" style="stroke: #A80036; stroke-width: 1.5;" width="10" x="23" y="168.5"/><rect fill="#FEFECE" height="5" style="stroke: #A80036; stroke-width: 1.5;" width="10" x="23" y="206.0938"/><text fill="#000000" font-family="sans-serif" font-size="14" font-style="italic" lengthAdjust="spacingAndGlyphs" textLength="100" x="39" y="186.4951">«project type»</text><text fill="#000000" font-family="sans-serif" font-size="14" lengthAdjust="spacingAndGlyphs" textLength="102" x="38" y="202.792">schema-plugin</text><!--entity service-generator--><rect fill="#FEFECE" filter="url(#f154n5vnq2jbso)" height="52.5938" style="stroke: #A80036; stroke-width: 1.5;" width="142" x="18" y="789.5"/><rect fill="#FEFECE" height="5" style="stroke: #A80036; stroke-width: 1.5;" width="10" x="13" y="794.5"/><rect fill="#FEFECE" height="5" style="stroke: #A80036; stroke-width: 1.5;" width="10" x="13" y="832.0938"/><text fill="#000000" font-family="sans-serif" font-size="14" font-style="italic" lengthAdjust="spacingAndGlyphs" textLength="100" x="39" y="812.4951">«project type»</text><text fill="#000000" font-family="sans-serif" font-size="14" lengthAdjust="spacingAndGlyphs" textLength="122" x="28" y="828.792">service-generator</text><!--entity template--><rect fill="#FEFECE" filter="url(#f154n5vnq2jbso)" height="52.5938" style="stroke: #A80036; stroke-width: 1.5;" width="120" x="310.5" y="1038.5"/><rect fill="#FEFECE" height="5" style="stroke: #A80036; stroke-width: 1.5;" width="10" x="305.5" y="1043.5"/><rect fill="#FEFECE" height="5" style="stroke: #A80036; stroke-width: 1.5;" width="10" x="305.5" y="1081.0938"/><text fill="#000000" font-family="sans-serif" font-size="14" font-style="italic" lengthAdjust="spacingAndGlyphs" textLength="100" x="320.5" y="1061.4951">«project type»</text><text fill="#000000" font-family="sans-serif" font-size="14" lengthAdjust="spacingAndGlyphs" textLength="61" x="340" y="1077.792">template</text><!--entity datasource.schema-plugin--><rect fill="#FEFECE" filter="url(#f154n5vnq2jbso)" height="36.2969" style="stroke: #A80036; stroke-width: 1.5;" width="204" x="268.5" y="754"/><rect fill="#FEFECE" height="5" style="stroke: #A80036; stroke-width: 1.5;" width="10" x="263.5" y="759"/><rect fill="#FEFECE" height="5" style="stroke: #A80036; stroke-width: 1.5;" width="10" x="263.5" y="780.2969"/><text fill="#000000" font-family="sans-serif" font-size="14" lengthAdjust="spacingAndGlyphs" textLength="184" x="278.5" y="776.9951">datasource.schema-plugin</text><!--entity service-api.schema-plugin--><rect fill="#FEFECE" filter="url(#f154n5vnq2jbso)" height="36.2969" style="stroke: #A80036; stroke-width: 1.5;" width="200" x="270.5" y="683"/><rect fill="#FEFECE" height="5" style="stroke: #A80036; stroke-width: 1.5;" width="10" x="265.5" y="688"/><rect fill="#FEFECE" height="5" style="stroke: #A80036; stroke-width: 1.5;" width="10" x="265.5" y="709.2969"/><text fill="#000000" font-family="sans-serif" font-size="14" lengthAdjust="spacingAndGlyphs" textLength="180" x="280.5" y="705.9951">service-api.schema-plugin</text><!--entity metamodel--><rect fill="#FEFECE" filter="url(#f154n5vnq2jbso)" height="36.2969" style="stroke: #A80036; stroke-width: 1.5;" width="98" x="321.5" y="168"/><rect fill="#FEFECE" height="5" style="stroke: #A80036; stroke-width: 1.5;" width="10" x="316.5" y="173"/><rect fill="#FEFECE" height="5" style="stroke: #A80036; stroke-width: 1.5;" width="10" x="316.5" y="194.2969"/><text fill="#000000" font-family="sans-serif" font-size="14" lengthAdjust="spacingAndGlyphs" textLength="78" x="331.5" y="190.9951">metamodel</text><!--entity schema.plugin-template--><rect fill="#FEFECE" filter="url(#f154n5vnq2jbso)" height="36.2969" style="stroke: #A80036; stroke-width: 1.5;" width="187" x="277" y="8"/><rect fill="#FEFECE" height="5" style="stroke: #A80036; stroke-width: 1.5;" width="10" x="272" y="13"/><rect fill="#FEFECE" height="5" style="stroke: #A80036; stroke-width: 1.5;" width="10" x="272" y="34.2969"/><text fill="#000000" font-family="sans-serif" font-size="14" lengthAdjust="spacingAndGlyphs" textLength="167" x="287" y="30.9951">schema.plugin-template</text><!--entity metamodel-plugin--><rect fill="#FEFECE" filter="url(#f154n5vnq2jbso)" height="36.2969" style="stroke: #A80036; stroke-width: 1.5;" width="145" x="298" y="310"/><rect fill="#FEFECE" height="5" style="stroke: #A80036; stroke-width: 1.5;" width="10" x="293" y="315"/><rect fill="#FEFECE" height="5" style="stroke: #A80036; stroke-width: 1.5;" width="10" x="293" y="336.2969"/><text fill="#000000" font-family="sans-serif" font-size="14" lengthAdjust="spacingAndGlyphs" textLength="125" x="308" y="332.9951">metamodel-plugin</text><!--entity common-model--><rect fill="#FEFECE" filter="url(#f154n5vnq2jbso)" height="36.2969" style="stroke: #A80036; stroke-width: 1.5;" width="129" x="306" y="381"/><rect fill="#FEFECE" height="5" style="stroke: #A80036; stroke-width: 1.5;" width="10" x="301" y="386"/><rect fill="#FEFECE" height="5" style="stroke: #A80036; stroke-width: 1.5;" width="10" x="301" y="407.2969"/><text fill="#000000" font-family="sans-serif" font-size="14" lengthAdjust="spacingAndGlyphs" textLength="109" x="316" y="403.9951">common-model</text><!--entity domain-model.document-template--><rect fill="#FEFECE" filter="url(#f154n5vnq2jbso)" height="36.2969" style="stroke: #A80036; stroke-width: 1.5;" width="260" x="240.5" y="452"/><rect fill="#FEFECE" height="5" style="stroke: #A80036; stroke-width: 1.5;" width="10" x="235.5" y="457"/><rect fill="#FEFECE" height="5" style="stroke: #A80036; stroke-width: 1.5;" width="10" x="235.5" y="478.2969"/><text fill="#000000" font-family="sans-serif" font-size="14" lengthAdjust="spacingAndGlyphs" textLength="240" x="250.5" y="474.9951">domain-model.document-template</text><!--entity common-model-plugin--><rect fill="#FEFECE" filter="url(#f154n5vnq2jbso)" height="36.2969" style="stroke: #A80036; stroke-width: 1.5;" width="176" x="282.5" y="523"/><rect fill="#FEFECE" height="5" style="stroke: #A80036; stroke-width: 1.5;" width="10" x="277.5" y="528"/><rect fill="#FEFECE" height="5" style="stroke: #A80036; stroke-width: 1.5;" width="10" x="277.5" y="549.2969"/><text fill="#000000" font-family="sans-serif" font-size="14" lengthAdjust="spacingAndGlyphs" textLength="156" x="292.5" y="545.9951">common-model-plugin</text><!--entity project.project-types--><rect fill="#FEFECE" filter="url(#f154n5vnq2jbso)" height="36.2969" style="stroke: #A80036; stroke-width: 1.5;" width="163" x="772" y="607"/><rect fill="#FEFECE" height="5" style="stroke: #A80036; stroke-width: 1.5;" width="10" x="767" y="612"/><rect fill="#FEFECE" height="5" style="stroke: #A80036; stroke-width: 1.5;" width="10" x="767" y="633.2969"/><text fill="#000000" font-family="sans-serif" font-size="14" lengthAdjust="spacingAndGlyphs" textLength="143" x="782" y="629.9951">project.project-types</text><!--entity project.base-template--><rect fill="#FEFECE" filter="url(#f154n5vnq2jbso)" height="36.2969" style="stroke: #A80036; stroke-width: 1.5;" width="172" x="767.5" y="678"/><rect fill="#FEFECE" height="5" style="stroke: #A80036; stroke-width: 1.5;" width="10" x="762.5" y="683"/><rect fill="#FEFECE" height="5" style="stroke: #A80036; stroke-width: 1.5;" width="10" x="762.5" y="704.2969"/><text fill="#000000" font-family="sans-serif" font-size="14" lengthAdjust="spacingAndGlyphs" textLength="152" x="777.5" y="700.9951">project.base-template</text><!--entity project.document-template--><rect fill="#FEFECE" filter="url(#f154n5vnq2jbso)" height="36.2969" style="stroke: #A80036; stroke-width: 1.5;" width="209" x="749" y="749"/><rect fill="#FEFECE" height="5" style="stroke: #A80036; stroke-width: 1.5;" width="10" x="744" y="754"/><rect fill="#FEFECE" height="5" style="stroke: #A80036; stroke-width: 1.5;" width="10" x="744" y="775.2969"/><text fill="#000000" font-family="sans-serif" font-size="14" lengthAdjust="spacingAndGlyphs" textLength="189" x="759" y="771.9951">project.document-template</text><!--entity project.schema-plugin--><rect fill="#FEFECE" filter="url(#f154n5vnq2jbso)" height="36.2969" style="stroke: #A80036; stroke-width: 1.5;" width="174" x="766.5" y="820"/><rect fill="#FEFECE" height="5" style="stroke: #A80036; stroke-width: 1.5;" width="10" x="761.5" y="825"/><rect fill="#FEFECE" height="5" style="stroke: #A80036; stroke-width: 1.5;" width="10" x="761.5" y="846.2969"/><text fill="#000000" font-family="sans-serif" font-size="14" lengthAdjust="spacingAndGlyphs" textLength="154" x="776.5" y="842.9951">project.schema-plugin</text><!--entity project-group.document-template--><rect fill="#FEFECE" filter="url(#f154n5vnq2jbso)" height="36.2969" style="stroke: #A80036; stroke-width: 1.5;" width="255" x="243" y="1127"/><rect fill="#FEFECE" height="5" style="stroke: #A80036; stroke-width: 1.5;" width="10" x="238" y="1132"/><rect fill="#FEFECE" height="5" style="stroke: #A80036; stroke-width: 1.5;" width="10" x="238" y="1153.2969"/><text fill="#000000" font-family="sans-serif" font-size="14" lengthAdjust="spacingAndGlyphs" textLength="235" x="253" y="1149.9951">project-group.document-template</text><!--entity schema.document-template--><rect fill="#FEFECE" filter="url(#f154n5vnq2jbso)" height="36.2969" style="stroke: #A80036; stroke-width: 1.5;" width="216" x="262.5" y="239"/><rect fill="#FEFECE" height="5" style="stroke: #A80036; stroke-width: 1.5;" width="10" x="257.5" y="244"/><rect fill="#FEFECE" height="5" style="stroke: #A80036; stroke-width: 1.5;" width="10" x="257.5" y="265.2969"/><text fill="#000000" font-family="sans-serif" font-size="14" lengthAdjust="spacingAndGlyphs" textLength="196" x="272.5" y="261.9951">schema.document-template</text><!--entity datasource.flyway-migration-template--><rect fill="#FEFECE" filter="url(#f154n5vnq2jbso)" height="36.2969" style="stroke: #A80036; stroke-width: 1.5;" width="277" x="232" y="896"/><rect fill="#FEFECE" height="5" style="stroke: #A80036; stroke-width: 1.5;" width="10" x="227" y="901"/><rect fill="#FEFECE" height="5" style="stroke: #A80036; stroke-width: 1.5;" width="10" x="227" y="922.2969"/><text fill="#000000" font-family="sans-serif" font-size="14" lengthAdjust="spacingAndGlyphs" textLength="257" x="242" y="918.9951">datasource.flyway-migration-template</text><!--entity service-api.springboot2-template--><rect fill="#FEFECE" filter="url(#f154n5vnq2jbso)" height="36.2969" style="stroke: #A80036; stroke-width: 1.5;" width="248" x="246.5" y="967"/><rect fill="#FEFECE" height="5" style="stroke: #A80036; stroke-width: 1.5;" width="10" x="241.5" y="972"/><rect fill="#FEFECE" height="5" style="stroke: #A80036; stroke-width: 1.5;" width="10" x="241.5" y="993.2969"/><text fill="#000000" font-family="sans-serif" font-size="14" lengthAdjust="spacingAndGlyphs" textLength="228" x="256.5" y="989.9951">service-api.springboot2-template</text><!--link arch-model to model--><path d="M149.27,684.03 C195.04,670.94 258.27,652.84 305.24,639.39 " fill="none" id="arch-model-model" style="stroke: #A80036; stroke-width: 1.0;"/><polygon fill="#A80036" points="310.31,637.94,300.5547,636.5855,305.5051,639.323,302.7676,644.2734,310.31,637.94" style="stroke: #A80036; stroke-width: 1.0;"/><!--link domain-model-plugin to plugin--><path d="M172.35,103.18 C214.73,103.79 265.63,104.51 305.1,105.08 " fill="none" id="domain-model-plugin-plugin" style="stroke: #A80036; stroke-width: 1.0;"/><polygon fill="#A80036" points="310.34,105.15,301.3981,101.0218,305.3405,105.0786,301.2838,109.021,310.34,105.15" style="stroke: #A80036; stroke-width: 1.0;"/><!--link domain-model to model--><path d="M111.95,469.63 C137.82,499.42 183.46,547.27 232,576 C254.4,589.26 281.19,599.16 305.16,606.24 " fill="none" id="domain-model-model" style="stroke: #A80036; stroke-width: 1.0;"/><polygon fill="#A80036" points="310.23,607.71,302.6926,601.3707,305.4262,606.3232,300.4737,609.0568,310.23,607.71" style="stroke: #A80036; stroke-width: 1.0;"/><!--link model to generator--><path d="M430.67,637.06 C455.31,644.48 483.96,654.08 509,665 C533.65,675.75 559.82,690.13 581.32,702.81 " fill="none" id="model-generator" style="stroke: #A80036; stroke-width: 1.0;"/><polygon fill="#A80036" points="585.84,705.49,580.149,697.4518,581.5425,702.9343,576.06,704.3278,585.84,705.49" style="stroke: #A80036; stroke-width: 1.0;"/><!--link plugin to generator--><path d="M430.72,111.31 C458.23,116.83 489.16,127.9 509,150 C583.5,233.02 617.06,591.29 625.68,700.37 " fill="none" id="plugin-generator" style="stroke: #A80036; stroke-width: 1.0;"/><polygon fill="#A80036" points="626.07,705.37,629.3618,696.0876,625.6832,700.385,621.3858,696.7064,626.07,705.37" style="stroke: #A80036; stroke-width: 1.0;"/><!--link project-group to model--><path d="M106.65,984.26 C124.55,954.69 152.98,905.24 172,860 C207.14,776.41 168.24,729.48 232,665 C251.41,645.37 279.58,634.48 305.37,628.46 " fill="none" id="project-group-model" style="stroke: #A80036; stroke-width: 1.0;"/><polygon fill="#A80036" points="310.49,627.31,300.8366,625.3576,305.6091,628.3947,302.572,633.1671,310.49,627.31" style="stroke: #A80036; stroke-width: 1.0;"/><!--link schema-model to model--><path d="M117.84,329.83 C135.37,347.98 157.38,373.27 172,399 C213.05,471.21 172.96,517.58 232,576 C251.58,595.38 279.63,606.41 305.29,612.69 " fill="none" id="schema-model-model" style="stroke: #A80036; stroke-width: 1.0;"/><polygon fill="#A80036" points="310.38,613.89,302.5315,607.9401,305.5122,612.748,300.7043,615.7286,310.38,613.89" style="stroke: #A80036; stroke-width: 1.0;"/><!--link schema-plugin to plugin--><path d="M150.3,171.88 C195.98,158.15 258.61,139.33 305.23,125.31 " fill="none" id="schema-plugin-plugin" style="stroke: #A80036; stroke-width: 1.0;"/><polygon fill="#A80036" points="310.26,123.8,300.4885,122.5682,305.4728,125.2433,302.7977,130.2277,310.26,123.8" style="stroke: #A80036; stroke-width: 1.0;"/><!--link service-generator to generator--><path d="M160.36,825.73 C245.07,834.91 390.72,842.55 509,807 C539.6,797.8 570.01,778.41 592.43,761.65 " fill="none" id="service-generator-generator" style="stroke: #A80036; stroke-width: 1.0;"/><polygon fill="#A80036" points="596.52,758.56,586.9289,760.7984,592.532,761.576,591.7545,767.1791,596.52,758.56" style="stroke: #A80036; stroke-width: 1.0;"/><!--link template to generator--><path d="M430.72,1057.12 C457.4,1050.91 487.63,1039.81 509,1020 C585.06,949.48 613.94,823.07 623.64,764.02 " fill="none" id="template-generator" style="stroke: #A80036; stroke-width: 1.0;"/><polygon fill="#A80036" points="624.47,758.86,619.0834,767.1053,623.6711,763.7958,626.9807,768.3835,624.47,758.86" style="stroke: #A80036; stroke-width: 1.0;"/><!--link arch-model to datasource.schema-plugin--><path d="M149.27,716.06 C191.33,726.74 248.13,741.17 293.51,752.7 " fill="none" id="arch-model-datasource.schema-plugin" style="stroke: #A80036; stroke-width: 1.0; stroke-dasharray: 7.0,7.0;"/><polygon fill="#A80036" points="298.43,753.95,290.6899,747.8597,293.5835,752.7205,288.7227,755.6141,298.43,753.95" style="stroke: #A80036; stroke-width: 1.0;"/><!--link arch-model to service-api.schema-plugin--><path d="M149.27,701 C182.94,701 226.05,701 265.19,701 " fill="none" id="arch-model-service-api.schema-plugin" style="stroke: #A80036; stroke-width: 1.0; stroke-dasharray: 7.0,7.0;"/><polygon fill="#A80036" points="270.44,701,261.44,697,265.44,701,261.44,705,270.44,701" style="stroke: #A80036; stroke-width: 1.0;"/><!--link domain-model-plugin to metamodel--><path d="M165.22,128.52 C186.7,135.79 210.19,143.47 232,150 C259.59,158.26 290.61,166.48 316.19,172.97 " fill="none" id="domain-model-plugin-metamodel" style="stroke: #A80036; stroke-width: 1.0; stroke-dasharray: 7.0,7.0;"/><polygon fill="#A80036" points="321.23,174.24,313.4899,168.1497,316.3835,173.0105,311.5227,175.9041,321.23,174.24" style="stroke: #A80036; stroke-width: 1.0;"/><!--link domain-model-plugin to schema.plugin-template--><path d="M172.15,78.58 C191.74,73.07 212.6,67.27 232,62 C252.28,56.49 274.29,50.66 294.63,45.33 " fill="none" id="domain-model-plugin-schema.plugin-template" style="stroke: #A80036; stroke-width: 1.0; stroke-dasharray: 7.0,7.0;"/><polygon fill="#A80036" points="299.48,44.06,289.7581,42.4836,294.6448,45.3332,291.7952,50.2199,299.48,44.06" style="stroke: #A80036; stroke-width: 1.0;"/><!--link domain-model-plugin to metamodel-plugin--><path d="M151.26,128.58 C158.87,133.61 166.05,139.4 172,146 C219,198.08 179.19,245.82 232,292 C248.92,306.8 271.22,315.62 292.92,320.85 " fill="none" id="domain-model-plugin-metamodel-plugin" style="stroke: #A80036; stroke-width: 1.0; stroke-dasharray: 7.0,7.0;"/><polygon fill="#A80036" points="297.83,321.98,289.9448,316.0789,292.9552,320.8682,288.1659,323.8786,297.83,321.98" style="stroke: #A80036; stroke-width: 1.0;"/><!--link domain-model to metamodel--><path d="M116.09,416.38 C133.32,397.91 155.65,372.19 172,347 C205.77,294.97 184.08,260.38 232,221 C255.56,201.64 288.49,192.82 316.21,188.87 " fill="none" id="domain-model-metamodel" style="stroke: #A80036; stroke-width: 1.0; stroke-dasharray: 7.0,7.0;"/><polygon fill="#A80036" points="321.33,188.19,311.8824,185.4074,316.3734,188.8471,312.9337,193.338,321.33,188.19" style="stroke: #A80036; stroke-width: 1.0;"/><!--link domain-model to common-model--><path d="M149.27,433.67 C193.65,426.68 254.44,417.11 300.91,409.8 " fill="none" id="domain-model-common-model" style="stroke: #A80036; stroke-width: 1.0; stroke-dasharray: 7.0,7.0;"/><polygon fill="#A80036" points="305.94,409.01,296.4225,406.4768,301.0024,409.7972,297.682,414.377,305.94,409.01" style="stroke: #A80036; stroke-width: 1.0;"/><!--link domain-model to domain-model.document-template--><path d="M149.27,448.73 C174.5,451.16 205.02,454.11 235.21,457.03 " fill="none" id="domain-model-domain-model.document-template" style="stroke: #A80036; stroke-width: 1.0; stroke-dasharray: 7.0,7.0;"/><polygon fill="#A80036" points="240.44,457.53,231.8578,452.6982,235.4623,457.058,231.1026,460.6625,240.44,457.53" style="stroke: #A80036; stroke-width: 1.0;"/><!--link domain-model to metamodel-plugin--><path d="M130.5,416.37 C158.16,399.16 196.15,377.37 232,363 C251.18,355.31 272.56,348.91 292.63,343.76 " fill="none" id="domain-model-metamodel-plugin" style="stroke: #A80036; stroke-width: 1.0; stroke-dasharray: 7.0,7.0;"/><polygon fill="#A80036" points="297.7,342.48,287.9974,340.789,292.8501,343.696,289.9431,348.5488,297.7,342.48" style="stroke: #A80036; stroke-width: 1.0;"/><!--link domain-model to common-model-plugin--><path d="M145.52,469.63 C171.42,481.44 202.9,494.91 232,505 C249.58,511.1 268.74,516.73 287.01,521.63 " fill="none" id="domain-model-common-model-plugin" style="stroke: #A80036; stroke-width: 1.0; stroke-dasharray: 7.0,7.0;"/><polygon fill="#A80036" points="292.14,523,284.4723,516.8189,287.3084,521.7135,282.4138,524.5496,292.14,523" style="stroke: #A80036; stroke-width: 1.0;"/><!--link generator to project.project-types--><path d="M669.01,705.42 C691.69,690.75 721.19,672.93 749,660 C760.92,654.46 773.97,649.35 786.67,644.85 " fill="none" id="generator-project.project-types" style="stroke: #A80036; stroke-width: 1.0; stroke-dasharray: 7.0,7.0;"/><polygon fill="#A80036" points="791.7,643.09,781.8836,642.2917,786.9814,644.7437,784.5294,649.8415,791.7,643.09" style="stroke: #A80036; stroke-width: 1.0;"/><!--link generator to project.base-template--><path d="M689.04,722.45 C711.4,718.83 737.39,714.62 761.98,710.65 " fill="none" id="generator-project.base-template" style="stroke: #A80036; stroke-width: 1.0; stroke-dasharray: 7.0,7.0;"/><polygon fill="#A80036" points="767.21,709.8,757.6865,707.2893,762.2742,710.5989,758.9647,715.1866,767.21,709.8" style="stroke: #A80036; stroke-width: 1.0;"/><!--link generator to project.document-template--><path d="M689.04,741.29 C705.87,743.93 724.76,746.91 743.56,749.86 " fill="none" id="generator-project.document-template" style="stroke: #A80036; stroke-width: 1.0; stroke-dasharray: 7.0,7.0;"/><polygon fill="#A80036" points="748.86,750.7,740.5845,745.36,743.9198,749.929,739.3508,753.2643,748.86,750.7" style="stroke: #A80036; stroke-width: 1.0;"/><!--link generator to project.schema-plugin--><path d="M670.5,758.52 C693.03,772.57 721.92,789.47 749,802 C761.76,807.9 775.79,813.4 789.28,818.23 " fill="none" id="generator-project.schema-plugin" style="stroke: #A80036; stroke-width: 1.0; stroke-dasharray: 7.0,7.0;"/><polygon fill="#A80036" points="794.22,819.98,787.074,813.2025,789.5074,818.3092,784.4007,820.7426,794.22,819.98" style="stroke: #A80036; stroke-width: 1.0;"/><!--link project-group to project-group.document-template--><path d="M121.6,1037.64 C149.15,1059.64 191.02,1090.2 232,1109 C246,1115.42 261.36,1120.86 276.57,1125.4 " fill="none" id="project-group-project-group.document-template" style="stroke: #A80036; stroke-width: 1.0; stroke-dasharray: 7.0,7.0;"/><polygon fill="#A80036" points="281.72,1126.9,274.2,1120.54,276.92,1125.5,271.96,1128.22,281.72,1126.9" style="stroke: #A80036; stroke-width: 1.0;"/><!--link schema-model to metamodel--><path d="M129.2,276.43 C156.91,258.64 195.48,235.86 232,221 C258.95,210.03 290.31,201.73 316.26,195.98 " fill="none" id="schema-model-metamodel" style="stroke: #A80036; stroke-width: 1.0; stroke-dasharray: 7.0,7.0;"/><polygon fill="#A80036" points="321.38,194.86,311.7321,192.8807,316.4961,195.931,313.4457,200.695,321.38,194.86" style="stroke: #A80036; stroke-width: 1.0;"/><!--link schema-model to schema.document-template--><path d="M150.65,293.02 C181.79,287.89 220.74,281.48 257.12,275.5 " fill="none" id="schema-model-schema.document-template" style="stroke: #A80036; stroke-width: 1.0; stroke-dasharray: 7.0,7.0;"/><polygon fill="#A80036" points="262.47,274.61,252.9383,272.1306,257.5369,275.425,254.2424,280.0236,262.47,274.61" style="stroke: #A80036; stroke-width: 1.0;"/><!--link schema-model to metamodel-plugin--><path d="M150.65,308.42 C192.31,312.15 247.96,317.13 292.72,321.13 " fill="none" id="schema-model-metamodel-plugin" style="stroke: #A80036; stroke-width: 1.0; stroke-dasharray: 7.0,7.0;"/><polygon fill="#A80036" points="297.84,321.59,289.2428,316.7849,292.8609,321.1335,288.5124,324.7515,297.84,321.59" style="stroke: #A80036; stroke-width: 1.0;"/><!--link schema-plugin to metamodel--><path d="M150.3,189.14 C199.7,188.43 268.92,187.44 316.28,186.76 " fill="none" id="schema-plugin-metamodel" style="stroke: #A80036; stroke-width: 1.0; stroke-dasharray: 7.0,7.0;"/><polygon fill="#A80036" points="321.36,186.69,312.3038,182.819,316.3605,186.7614,312.4181,190.8182,321.36,186.69" style="stroke: #A80036; stroke-width: 1.0;"/><!--link schema-plugin to schema.plugin-template--><path d="M147.8,163.38 C156.35,158.22 164.72,152.4 172,146 C206.45,115.7 194.22,88.03 232,62 C244.05,53.7 257.89,47.31 272.05,42.4 " fill="none" id="schema-plugin-schema.plugin-template" style="stroke: #A80036; stroke-width: 1.0; stroke-dasharray: 7.0,7.0;"/><polygon fill="#A80036" points="276.87,40.79,267.0661,39.8502,272.128,42.3754,269.6028,47.4374,276.87,40.79" style="stroke: #A80036; stroke-width: 1.0;"/><!--link schema-plugin to metamodel-plugin--><path d="M120.05,216.65 C147.46,239.67 189.97,272.24 232,292 C251.02,300.94 272.6,307.92 292.94,313.25 " fill="none" id="schema-plugin-metamodel-plugin" style="stroke: #A80036; stroke-width: 1.0; stroke-dasharray: 7.0,7.0;"/><polygon fill="#A80036" points="297.81,314.5,290.0868,308.3883,292.9669,313.2571,288.0982,316.1372,297.81,314.5" style="stroke: #A80036; stroke-width: 1.0;"/><!--link service-generator to datasource.flyway-migration-template--><path d="M159.49,842.58 C182.5,851.21 208.28,860.7 232,869 C256.57,877.6 283.78,886.61 307.46,894.29 " fill="none" id="service-generator-datasource.flyway-migration-template" style="stroke: #A80036; stroke-width: 1.0; stroke-dasharray: 7.0,7.0;"/><polygon fill="#A80036" points="312.46,895.91,305.133,889.3286,307.7039,894.3675,302.665,896.9383,312.46,895.91" style="stroke: #A80036; stroke-width: 1.0;"/><!--link service-generator to service-api.springboot2-template--><path d="M111.19,842.62 C136.69,872.87 182.32,921.58 232,949 C243.83,955.53 256.9,960.92 270.12,965.35 " fill="none" id="service-generator-service-api.springboot2-template" style="stroke: #A80036; stroke-width: 1.0; stroke-dasharray: 7.0,7.0;"/><polygon fill="#A80036" points="275,966.94,267.673,960.3586,270.2439,965.3975,265.205,967.9683,275,966.94" style="stroke: #A80036; stroke-width: 1.0;"/><!--link service-generator to metamodel-plugin--><path d="M131.49,789.42 C146.59,777.63 162.32,762.45 172,745 C255.37,594.72 116.29,490.07 232,363 C247.57,345.9 270.22,336.63 292.66,331.76 " fill="none" id="service-generator-metamodel-plugin" style="stroke: #A80036; stroke-width: 1.0; stroke-dasharray: 7.0,7.0;"/><polygon fill="#A80036" points="297.74,330.72,288.1219,328.6004,292.841,331.7198,289.7216,336.4389,297.74,330.72" style="stroke: #A80036; stroke-width: 1.0;"/><!--link service-generator to datasource.schema-plugin--><path d="M160.17,804.95 C191.38,800.04 228.81,794.15 263.33,788.71 " fill="none" id="service-generator-datasource.schema-plugin" style="stroke: #A80036; stroke-width: 1.0; stroke-dasharray: 7.0,7.0;"/><polygon fill="#A80036" points="268.4,787.92,258.8908,785.3557,263.4598,788.691,260.1245,793.26,268.4,787.92" style="stroke: #A80036; stroke-width: 1.0;"/><!--link service-generator to service-api.schema-plugin--><path d="M130.5,789.37 C158.16,772.16 196.15,750.37 232,736 C246.92,730.02 263.17,724.82 279.09,720.38 " fill="none" id="service-generator-service-api.schema-plugin" style="stroke: #A80036; stroke-width: 1.0; stroke-dasharray: 7.0,7.0;"/><polygon fill="#A80036" points="284.03,719.03,274.2913,717.5609,279.2092,720.3564,276.4136,725.2743,284.03,719.03" style="stroke: #A80036; stroke-width: 1.0;"/><!--
@startuml
left to right direction

[arch-model] <<project type>>
[domain-model-plugin] <<project type>>
[domain-model] <<project type>>
[generator] <<project type>>
[model] <<project type>>
[plugin] <<project type>>
[project-group] <<project type>>
[schema-model] <<project type>>
[schema-plugin] <<project type>>
[service-generator] <<project type>>
[template] <<project type>>


[arch-model] - -> [model]
[domain-model-plugin] - -> [plugin]
[domain-model] - -> [model]
[model] - -> [generator]
[plugin] - -> [generator]
[project-group] - -> [model]
[schema-model] - -> [model]
[schema-plugin] - -> [plugin]
[service-generator] - -> [generator]
[template] - -> [generator]





  [arch-model] ..> [datasource.schema-plugin]
  [arch-model] ..> [service-api.schema-plugin]

  [domain-model-plugin] ..> [metamodel]
  [domain-model-plugin] ..> [schema.plugin-template]
  [domain-model-plugin] ..> [metamodel-plugin]

  [domain-model] ..> [metamodel]
  [domain-model] ..> [common-model]
  [domain-model] ..> [domain-model.document-template]
  [domain-model] ..> [metamodel-plugin]
  [domain-model] ..> [common-model-plugin]

  [generator] ..> [project.project-types]
  [generator] ..> [project.base-template]
  [generator] ..> [project.document-template]
  [generator] ..> [project.schema-plugin]



  [project-group] ..> [project-group.document-template]

  [schema-model] ..> [metamodel]
  [schema-model] ..> [schema.document-template]
  [schema-model] ..> [metamodel-plugin]

  [schema-plugin] ..> [metamodel]
  [schema-plugin] ..> [schema.plugin-template]
  [schema-plugin] ..> [metamodel-plugin]

  [service-generator] ..> [datasource.flyway-migration-template]
  [service-generator] ..> [service-api.springboot2-template]
  [service-generator] ..> [metamodel-plugin]
  [service-generator] ..> [datasource.schema-plugin]
  [service-generator] ..> [service-api.schema-plugin]



@enduml

PlantUML version 1.2019.05(Sun Apr 21 01:45:36 JST 2019)
(GPL source distribution)
Java Runtime: OpenJDK Runtime Environment
JVM: OpenJDK 64-Bit Server VM
Java Version: 1.8.0_242-b20
Operating System: Linux
OS Version: 4.19.84-microsoft-standard
Default Encoding: UTF-8
Language: en
Country: 
--></g></svg>